<svg viewBox="0 0 330 200" xmlns="http://www.w3.org/2000/svg"><g><g><g><g><g><line x1="51.5625" y1="177" x2="46.5625" y2="177" style="visibility: inherit;" fill="rgb(0, 0, 0)" stroke="rgb(204, 204, 204)" stroke-width="1px"></line><line x1="51.5625" y1="159.3" x2="46.5625" y2="159.3" style="visibility: inherit;" fill="rgb(0, 0, 0)" stroke="rgb(204, 204, 204)" stroke-width="1px"></line><line x1="51.5625" y1="141.6" x2="46.5625" y2="141.6" style="visibility: inherit;" fill="rgb(0, 0, 0)" stroke="rgb(204, 204, 204)" stroke-width="1px"></line><line x1="51.5625" y1="123.89999999999999" x2="46.5625" y2="123.89999999999999" style="visibility: inherit;" fill="rgb(0, 0, 0)" stroke="rgb(204, 204, 204)" stroke-width="1px"></line><line x1="51.5625" y1="106.2" x2="46.5625" y2="106.2" style="visibility: inherit;" fill="rgb(0, 0, 0)" stroke="rgb(204, 204, 204)" stroke-width="1px"></line><line x1="51.5625" y1="88.49999999999999" x2="46.5625" y2="88.49999999999999" style="visibility: inherit;" fill="rgb(0, 0, 0)" stroke="rgb(204, 204, 204)" stroke-width="1px"></line><line x1="51.5625" y1="70.8" x2="46.5625" y2="70.8" style="visibility: inherit;" fill="rgb(0, 0, 0)" stroke="rgb(204, 204, 204)" stroke-width="1px"></line><line x1="51.5625" y1="53.09999999999999" x2="46.5625" y2="53.09999999999999" style="visibility: inherit;" fill="rgb(0, 0, 0)" stroke="rgb(204, 204, 204)" stroke-width="1px"></line><line x1="51.5625" y1="35.40000000000001" x2="46.5625" y2="35.40000000000001" style="visibility: inherit;" fill="rgb(0, 0, 0)" stroke="rgb(204, 204, 204)" stroke-width="1px"></line><line x1="51.5625" y1="17.699999999999996" x2="46.5625" y2="17.699999999999996" style="visibility: inherit;" fill="rgb(0, 0, 0)" stroke="rgb(204, 204, 204)" stroke-width="1px"></line><line x1="51.5625" y1="0" x2="46.5625" y2="0" style="visibility: inherit;" fill="rgb(0, 0, 0)" stroke="rgb(204, 204, 204)" stroke-width="1px"></line></g><g transform="translate(41.5625, 0)"><text x="0" y="177" dx="0em" dy="0.3em" style="text-anchor: end; visibility: hidden; font-family: Roboto, sans-serif; font-size: 12px; font-weight: 200;" fill="rgb(33, 33, 33)" stroke="none" stroke-width="1px">0.3</text><text x="0" y="159.3" dx="0em" dy="0.3em" style="text-anchor: end; visibility: inherit; font-family: Roboto, sans-serif; font-size: 12px; font-weight: 200;" fill="rgb(33, 33, 33)" stroke="none" stroke-width="1px">0.35</text><text x="0" y="141.6" dx="0em" dy="0.3em" style="text-anchor: end; visibility: hidden; font-family: Roboto, sans-serif; font-size: 12px; font-weight: 200;" fill="rgb(33, 33, 33)" stroke="none" stroke-width="1px">0.4</text><text x="0" y="123.89999999999999" dx="0em" dy="0.3em" style="text-anchor: end; visibility: inherit; font-family: Roboto, sans-serif; font-size: 12px; font-weight: 200;" fill="rgb(33, 33, 33)" stroke="none" stroke-width="1px">0.45</text><text x="0" y="106.2" dx="0em" dy="0.3em" style="text-anchor: end; visibility: hidden; font-family: Roboto, sans-serif; font-size: 12px; font-weight: 200;" fill="rgb(33, 33, 33)" stroke="none" stroke-width="1px">0.5</text><text x="0" y="88.49999999999999" dx="0em" dy="0.3em" style="text-anchor: end; visibility: inherit; font-family: Roboto, sans-serif; font-size: 12px; font-weight: 200;" fill="rgb(33, 33, 33)" stroke="none" stroke-width="1px">0.55</text><text x="0" y="70.8" dx="0em" dy="0.3em" style="text-anchor: end; visibility: hidden; font-family: Roboto, sans-serif; font-size: 12px; font-weight: 200;" fill="rgb(33, 33, 33)" stroke="none" stroke-width="1px">0.6</text><text x="0" y="53.09999999999999" dx="0em" dy="0.3em" style="text-anchor: end; visibility: inherit; font-family: Roboto, sans-serif; font-size: 12px; font-weight: 200;" fill="rgb(33, 33, 33)" stroke="none" stroke-width="1px">0.65</text><text x="0" y="35.40000000000001" dx="0em" dy="0.3em" style="text-anchor: end; visibility: hidden; font-family: Roboto, sans-serif; font-size: 12px; font-weight: 200;" fill="rgb(33, 33, 33)" stroke="none" stroke-width="1px">0.7</text><text x="0" y="17.699999999999996" dx="0em" dy="0.3em" style="text-anchor: end; visibility: inherit; font-family: Roboto, sans-serif; font-size: 12px; font-weight: 200;" fill="rgb(33, 33, 33)" stroke="none" stroke-width="1px">0.75</text><text x="0" y="0" dx="0em" dy="0.3em" style="text-anchor: end; visibility: hidden; font-family: Roboto, sans-serif; font-size: 12px; font-weight: 200;" fill="rgb(33, 33, 33)" stroke="none" stroke-width="1px">0.8</text></g><line x1="51.5625" y1="0" x2="51.5625" y2="177" fill="rgb(0, 0, 0)" stroke="rgb(204, 204, 204)" stroke-width="1px"></line></g></g><g transform="translate(51, 0)" clip-path="url(#clip_0)"><clipPath id="clip_0"><rect width="278" height="177"></rect></clipPath><g><g><g><line x1="0" y1="0" x2="0" y2="177" fill="rgb(0, 0, 0)" stroke="rgb(66, 66, 66)" stroke-width="1px" opacity="0.25"></line><line x1="21.418269230769234" y1="0" x2="21.418269230769234" y2="177" fill="rgb(0, 0, 0)" stroke="rgb(66, 66, 66)" stroke-width="1px" opacity="0.25"></line><line x1="42.83653846153847" y1="0" x2="42.83653846153847" y2="177" fill="rgb(0, 0, 0)" stroke="rgb(66, 66, 66)" stroke-width="1px" opacity="0.25"></line><line x1="64.2548076923077" y1="0" x2="64.2548076923077" y2="177" fill="rgb(0, 0, 0)" stroke="rgb(66, 66, 66)" stroke-width="1px" opacity="0.25"></line><line x1="85.67307692307693" y1="0" x2="85.67307692307693" y2="177" fill="rgb(0, 0, 0)" stroke="rgb(66, 66, 66)" stroke-width="1px" opacity="0.25"></line><line x1="107.09134615384616" y1="0" x2="107.09134615384616" y2="177" fill="rgb(0, 0, 0)" stroke="rgb(66, 66, 66)" stroke-width="1px" opacity="0.25"></line><line x1="128.5096153846154" y1="0" x2="128.5096153846154" y2="177" fill="rgb(0, 0, 0)" stroke="rgb(66, 66, 66)" stroke-width="1px" opacity="0.25"></line><line x1="149.9278846153846" y1="0" x2="149.9278846153846" y2="177" fill="rgb(0, 0, 0)" stroke="rgb(66, 66, 66)" stroke-width="1px" opacity="0.25"></line><line x1="171.34615384615387" y1="0" x2="171.34615384615387" y2="177" fill="rgb(0, 0, 0)" stroke="rgb(66, 66, 66)" stroke-width="1px" opacity="0.25"></line><line x1="192.76442307692307" y1="0" x2="192.76442307692307" y2="177" fill="rgb(0, 0, 0)" stroke="rgb(66, 66, 66)" stroke-width="1px" opacity="0.25"></line><line x1="214.18269230769232" y1="0" x2="214.18269230769232" y2="177" fill="rgb(0, 0, 0)" stroke="rgb(66, 66, 66)" stroke-width="1px" opacity="0.25"></line><line x1="235.60096153846155" y1="0" x2="235.60096153846155" y2="177" fill="rgb(0, 0, 0)" stroke="rgb(66, 66, 66)" stroke-width="1px" opacity="0.25"></line><line x1="257.0192307692308" y1="0" x2="257.0192307692308" y2="177" fill="rgb(0, 0, 0)" stroke="rgb(66, 66, 66)" stroke-width="1px" opacity="0.25"></line><line x1="278.4375" y1="0" x2="278.4375" y2="177" fill="rgb(0, 0, 0)" stroke="rgb(66, 66, 66)" stroke-width="1px" opacity="0.25"></line></g><g><line x1="0" y1="177" x2="278.4375" y2="177" fill="rgb(0, 0, 0)" stroke="rgb(66, 66, 66)" stroke-width="1px" opacity="0.25"></line><line x1="0" y1="159.3" x2="278.4375" y2="159.3" fill="rgb(0, 0, 0)" stroke="rgb(66, 66, 66)" stroke-width="1px" opacity="0.25"></line><line x1="0" y1="141.6" x2="278.4375" y2="141.6" fill="rgb(0, 0, 0)" stroke="rgb(66, 66, 66)" stroke-width="1px" opacity="0.25"></line><line x1="0" y1="123.89999999999999" x2="278.4375" y2="123.89999999999999" fill="rgb(0, 0, 0)" stroke="rgb(66, 66, 66)" stroke-width="1px" opacity="0.25"></line><line x1="0" y1="106.2" x2="278.4375" y2="106.2" fill="rgb(0, 0, 0)" stroke="rgb(66, 66, 66)" stroke-width="1px" opacity="0.25"></line><line x1="0" y1="88.49999999999999" x2="278.4375" y2="88.49999999999999" fill="rgb(0, 0, 0)" stroke="rgb(66, 66, 66)" stroke-width="1px" opacity="0.25"></line><line x1="0" y1="70.8" x2="278.4375" y2="70.8" fill="rgb(0, 0, 0)" stroke="rgb(66, 66, 66)" stroke-width="1px" opacity="0.25"></line><line x1="0" y1="53.09999999999999" x2="278.4375" y2="53.09999999999999" fill="rgb(0, 0, 0)" stroke="rgb(66, 66, 66)" stroke-width="1px" opacity="0.25"></line><line x1="0" y1="35.40000000000001" x2="278.4375" y2="35.40000000000001" fill="rgb(0, 0, 0)" stroke="rgb(66, 66, 66)" stroke-width="1px" opacity="0.25"></line><line x1="0" y1="17.699999999999996" x2="278.4375" y2="17.699999999999996" fill="rgb(0, 0, 0)" stroke="rgb(66, 66, 66)" stroke-width="1px" opacity="0.25"></line><line x1="0" y1="0" x2="278.4375" y2="0" fill="rgb(0, 0, 0)" stroke="rgb(66, 66, 66)" stroke-width="1px" opacity="0.25"></line></g></g></g><g><g><line x1="0" y1="283.2" x2="278.4375" y2="283.2" fill="rgb(0, 0, 0)" stroke="rgb(153, 153, 153)" stroke-width="1.5px"></line></g></g><g><g><line x1="0" y1="0" x2="0" y2="177" fill="rgb(0, 0, 0)" stroke="rgb(153, 153, 153)" stroke-width="1.5px"></line></g></g><g><g><g><g><g><path stroke="rgb(204, 51, 17)" stroke-width="2px" d="M8.567307692307693,90.10908515453339L21.418269230769234,97.22057095837016L34.269230769230774,112.39175211064122L47.120192307692314,114.72235697045994L59.97115384615385,110.17279874613251L72.82211538461539,110.18988496415149L85.67307692307693,112.85020897296215L98.52403846153847,122.33339401159547L111.375,107.10257342749075L124.22596153846155,104.31591633763695L137.0769230769231,103.65545157952161L149.9278846153846,109.37721196410195L162.77884615384616,105.94530057029455L175.62980769230768,104.79625095891639L188.48076923076925,103.99915355822091L201.33173076923077,92.44128590163058L214.18269230769232,96.61921105971436L227.03365384615384,88.54003303782231L239.8846153846154,86.57562168562706L252.73557692307693,88.86682403609166" style="fill: none;" fill="none"></path></g><g><path stroke="rgb(0, 119, 187)" stroke-width="2px" d="M8.567307692307693,118.26818085908891L21.418269230769234,115.89768973572085L34.269230769230774,104.08327785580492L47.120192307692314,96.94566043413799L59.97115384615385,88.63085878414986L72.82211538461539,83.62982183243828L85.67307692307693,77.81503076759638L98.52403846153847,71.43358919479552L111.375,70.98023111075123L124.22596153846155,68.16797133668418L137.0769230769231,66.24770828687456L149.9278846153846,63.693033745702515L162.77884615384616,63.160010559428244L175.62980769230768,61.564301255642214L188.48076923076925,61.68169051577938L201.33173076923077,60.5405626358346L214.18269230769232,59.74702091760325L227.03365384615384,57.97408088427157L239.8846153846154,59.180051326254166L252.73557692307693,57.58040404054129" style="fill: none;" fill="none"></path></g><g><path stroke="rgb(255, 112, 67)" stroke-width="2px" d="M8.567307692307693,138.3818191409111L21.418269230769234,133.64083067730868L34.269230769230774,137.65570870830362L47.120192307692314,133.1574180647989L59.97115384615385,126.29886767794595L72.82211538461539,109.78307359770588L85.67307692307693,113.90212082450851L98.52403846153847,108.8491529457339L111.375,109.28215549100739L124.22596153846155,103.31113949027306L137.0769230769231,95.50707028211767L149.9278846153846,80.2633368023015L162.77884615384616,70.97260504736245L175.62980769230768,68.22118392982357L188.48076923076925,60.19083692044348L201.33173076923077,60.72552224311812L214.18269230769232,62.318869827639276L227.03365384615384,62.20693355208225L239.8846153846154,60.90883374681629L252.73557692307693,60.00475991807459" style="fill: none;" fill="none"></path></g><g><path stroke="rgb(187, 187, 187)" stroke-width="2px" d="M8.567307692307693,94.13180859088898L21.418269230769234,98.87280327135771L34.269230769230774,93.0150110627037L47.120192307692314,95.05336500618158L59.97115384615385,88.8836849376033L72.82211538461539,79.66590490048306L85.67307692307693,75.15650095195367L98.52403846153847,69.62810957849112L111.375,65.93955445020245L124.22596153846155,62.19152744112868L137.0769230769231,60.87462149998325L149.9278846153846,59.96967962636684L162.77884615384616,59.34510870751184L175.62980769230768,57.686024725004415L188.48076923076925,57.759450877562514L201.33173076923077,59.03313899423175L214.18269230769232,58.69733650301798L227.03365384615384,58.46365612281226L239.8846153846154,58.30096219589582L252.73557692307693,58.187652479012954" style="fill: none;" fill="none"></path></g><g><path stroke="rgb(0, 153, 136)" stroke-width="2px" d="M8.567307692307693,65.9727234363556L21.418269230769234,63.60223231298752L34.269230769230774,61.00239158054455L47.120192307692314,61.378215211209934L59.97115384615385,60.12670897955984L72.82211538461539,59.373975580346574L85.67307692307693,61.547058564398924L98.52403846153847,60.38556857879255L111.375,58.34250183731956L124.22596153846155,55.70761165723003L137.0769230769231,56.39309897647833L149.9278846153846,56.86414718093959L162.77884615384616,55.95909743279514L175.62980769230768,56.559288796075634L188.48076923076925,56.97564242506905L201.33173076923077,56.042206297839584L214.18269230769232,57.836147196716915L227.03365384615384,55.42234435533417L239.8846153846154,54.96196996017049L252.73557692307693,53.42155310495324" style="fill: none;" fill="none"></path></g><g><path stroke="rgb(238, 51, 119)" stroke-width="2px" d="M8.567307692307693,130.33636171817778L21.418269230769234,118.48389366760489L34.269230769230774,94.42719872487321L47.120192307692314,78.3558263309866L59.97115384615385,70.9472746444944L72.82211538461539,66.49131257799513L85.67307692307693,63.67102585940956L98.52403846153847,63.118795283022074L111.375,60.21410976928996L124.22596153846155,59.50192766061933L137.0769230769231,57.7733202241573L149.9278846153846,56.58546830290426L162.77884615384616,56.99579593785235L175.62980769230768,57.27984865332968L188.48076923076925,57.47689643866938L201.33173076923077,58.83646500217628L214.18269230769232,59.78191063793696L227.03365384615384,55.556926339771344L239.8846153846154,53.83555725234489L252.73557692307693,52.63669354769435" style="fill: none;" fill="none"></path></g><g><path stroke="rgb(51, 187, 238)" stroke-width="2px" d="M8.567307692307693,65.9727234363556L21.418269230769234,61.231741189619484L34.269230769230774,59.71788238384444L47.120192307692314,57.41230292444334L59.97115384615385,59.05792944736217L72.82211538461539,64.17792711498804L85.67307692307693,59.469965456106735L98.52403846153847,60.265741358105664L111.375,59.52856680831184L124.22596153846155,55.27151813305695L137.0769230769231,53.60704277242423L149.9278846153846,49.993016454825195L162.77884615384616,48.72885204093866L175.62980769230768,51.53388887309592L188.48076923076925,44.90939460381725L201.33173076923077,39.08464663394201L214.18269230769232,41.141750003102466L227.03365384615384,40.13180990281809L239.8846153846154,35.76815760584193L252.73557692307693,32.72905088737457" style="fill: none;" fill="none"></path></g><g><path stroke="rgb(204, 51, 17)" stroke-width="2px" d="M8.567307692307693,154.47272343635558L21.418269230769234,95.2103956172237L34.269230769230774,78.13005599356482L47.120192307692314,70.11758822840098L59.97115384615385,65.69668928690221L72.82211538461539,63.03768671571646L85.67307692307693,61.35473934671168L98.52403846153847,58.96417641144138L111.375,51.02859072048156L124.22596153846155,49.41866597142132L137.0769230769231,44.592430626503514L149.9278846153846,44.98133954167243L162.77884615384616,50.17038965995266L175.62980769230768,40.268624555957004L188.48076923076925,39.52143772534547L201.33173076923077,36.557006676101466L214.18269230769232,33.27400454539614L227.03365384615384,28.547957756811876L239.8846153846154,24.03740272560859L252.73557692307693,23.335540967210957" style="fill: none;" fill="none"></path></g><g><path stroke="rgb(51, 187, 238)" stroke-width="2px" d="M8.567307692307693,114.24545742273331L21.418269230769234,121.35693700970376L34.269230769230774,110.72733823014266L47.120192307692314,104.14551384594874L59.97115384615385,101.9728514376318L72.82211538461539,95.15912550270875L85.67307692307693,100.1198315430836L98.52403846153847,96.90765421408354L111.375,97.30072497878254L124.22596153846155,87.54433253886093L137.0769230769231,93.30566319727214L149.9278846153846,97.26469261437053L162.77884615384616,95.07649362087764L175.62980769230768,113.1892271561075L188.48076923076925,111.0620223964653L201.33173076923077,97.35744512115255L214.18269230769232,92.7133788297769L227.03365384615384,89.48163634702571L239.8846153846154,81.1307774166767L252.73557692307693,78.97408463197756" style="fill: none;" fill="none"></path></g><g><path stroke="rgb(0, 119, 187)" stroke-width="2px" d="M8.567307692307693,142.40454257726668L21.418269230769234,92.62418546847337L34.269230769230774,76.72865411193743L47.120192307692314,69.27198548527974L59.97115384615385,65.157750095526L72.82211538461539,53.04603317532498L85.67307692307693,53.328758798396535L98.52403846153847,50.93194287652983L111.375,46.79654588164371L124.22596153846155,38.98787505360356L137.0769230769231,36.140609140844624L149.9278846153846,25.538177905286837L162.77884615384616,18.2206137479053L175.62980769230768,24.195458172114524L188.48076923076925,33.237563512485984L201.33173076923077,32.18307211022262L214.18269230769232,25.34213729900197L227.03365384615384,21.802349092511673L239.8846153846154,20.558030079911084L252.73557692307693,22.13096914263152" style="fill: none;" fill="none"></path></g><g><path stroke="rgb(255, 112, 67)" stroke-width="2px" d="M8.567307692307693,94.13180859088898L21.418269230769234,75.1678671702119L34.269230769230774,59.89786166261412L47.120192307692314,59.11632317981388L59.97115384615385,57.22623953452402L72.82211538461539,53.33594643257809L85.67307692307693,80.01828539131488L98.52403846153847,83.25614967963237L111.375,57.517837015769906L124.22596153846155,47.62304986919201L137.0769230769231,43.35134510443486L149.9278846153846,36.710573210133056L162.77884615384616,51.80978754275924L175.62980769230768,42.63481167796691L188.48076923076925,39.943129319433204L201.33173076923077,38.07320672987675L214.18269230769232,31.88674683696554L227.03365384615384,28.802398812568217L239.8846153846154,27.875168259148506L252.73557692307693,26.009611435868933" style="fill: none;" fill="none"></path></g></g></g></g><g opacity="0.2"><g><g><g><path stroke="rgb(204, 51, 17)" stroke-width="2px" d="M8.567307692307693,90.10908515453339L21.418269230769234,102.17727656364441L34.269230769230774,130.33636171817778L47.120192307692314,118.2681808590889L59.97115384615385,102.17727656364441L72.82211538461539,110.2227234363556L85.67307692307693,118.2681808590889L98.52403846153847,142.40454257726668L111.375,74.01819140911103L124.22596153846155,98.15455312728882L137.0769230769231,102.17727656364441L149.9278846153846,122.29090429544449L162.77884615384616,98.15455312728882L175.62980769230768,102.17727656364441L188.48076923076925,102.17727656364441L201.33173076923077,65.9727234363556L214.18269230769232,106.2L227.03365384615384,69.99544687271118L239.8846153846154,82.06363828182221L252.73557692307693,94.13180859088898" style="fill: none;" fill="none"></path></g><g><path stroke="rgb(0, 119, 187)" stroke-width="2px" d="M8.567307692307693,118.2681808590889L21.418269230769234,114.24545742273331L34.269230769230774,90.10908515453339L47.120192307692314,86.0863617181778L59.97115384615385,74.01819140911103L72.82211538461539,74.01819140911103L85.67307692307693,65.9727234363556L98.52403846153847,57.927276563644405L111.375,69.99544687271118L124.22596153846155,61.949999999999996L137.0769230769231,61.949999999999996L149.9278846153846,57.927276563644405L162.77884615384616,61.949999999999996L175.62980769230768,57.927276563644405L188.48076923076925,61.949999999999996L201.33173076923077,57.927276563644405L214.18269230769232,57.927276563644405L227.03365384615384,53.904553127288814L239.8846153846154,61.949999999999996L252.73557692307693,53.904553127288814" style="fill: none;" fill="none"></path></g><g><path stroke="rgb(255, 112, 67)" stroke-width="2px" d="M8.567307692307693,138.3818191409111L21.418269230769234,130.33636171817778L34.269230769230774,142.40454257726668L47.120192307692314,126.31363828182221L59.97115384615385,114.24545742273331L72.82211538461539,78.04091484546662L85.67307692307693,122.29090429544449L98.52403846153847,98.15455312728882L111.375,110.2227234363556L124.22596153846155,90.10908515453339L137.0769230769231,78.04091484546662L149.9278846153846,45.85908515453338L162.77884615384616,49.88180859088897L175.62980769230768,61.949999999999996L188.48076923076925,41.83636171817779L201.33173076923077,61.949999999999996L214.18269230769232,65.9727234363556L227.03365384615384,61.949999999999996L239.8846153846154,57.927276563644405L252.73557692307693,57.927276563644405" style="fill: none;" fill="none"></path></g><g><path stroke="rgb(187, 187, 187)" stroke-width="2px" d="M8.567307692307693,94.13180859088898L21.418269230769234,102.17727656364441L34.269230769230774,86.0863617181778L47.120192307692314,98.15455312728882L59.97115384615385,78.04091484546662L72.82211538461539,61.949999999999996L85.67307692307693,65.9727234363556L98.52403846153847,57.927276563644405L111.375,57.927276563644405L124.22596153846155,53.904553127288814L137.0769230769231,57.927276563644405L149.9278846153846,57.927276563644405L162.77884615384616,57.927276563644405L175.62980769230768,53.904553127288814L188.48076923076925,57.927276563644405L201.33173076923077,61.949999999999996L214.18269230769232,57.927276563644405L227.03365384615384,57.927276563644405L239.8846153846154,57.927276563644405L252.73557692307693,57.927276563644405" style="fill: none;" fill="none"></path></g><g><path stroke="rgb(0, 153, 136)" stroke-width="2px" d="M8.567307692307693,65.9727234363556L21.418269230769234,61.949999999999996L34.269230769230774,57.927276563644405L47.120192307692314,61.949999999999996L59.97115384615385,57.927276563644405L72.82211538461539,57.927276563644405L85.67307692307693,65.9727234363556L98.52403846153847,57.927276563644405L111.375,53.904553127288814L124.22596153846155,49.88180859088897L137.0769230769231,57.927276563644405L149.9278846153846,57.927276563644405L162.77884615384616,53.904553127288814L175.62980769230768,57.927276563644405L188.48076923076925,57.927276563644405L201.33173076923077,53.904553127288814L214.18269230769232,61.949999999999996L227.03365384615384,49.88180859088897L239.8846153846154,53.904553127288814L252.73557692307693,49.88180859088897" style="fill: none;" fill="none"></path></g><g><path stroke="rgb(238, 51, 119)" stroke-width="2px" d="M8.567307692307693,130.33636171817778L21.418269230769234,110.2227234363556L34.269230769230774,65.9727234363556L47.120192307692314,53.904553127288814L59.97115384615385,57.927276563644405L72.82211538461539,57.927276563644405L85.67307692307693,57.927276563644405L98.52403846153847,61.949999999999996L111.375,53.904553127288814L124.22596153846155,57.927276563644405L137.0769230769231,53.904553127288814L149.9278846153846,53.904553127288814L162.77884615384616,57.927276563644405L175.62980769230768,57.927276563644405L188.48076923076925,57.927276563644405L201.33173076923077,61.949999999999996L214.18269230769232,61.949999999999996L227.03365384615384,45.85908515453338L239.8846153846154,49.88180859088897L252.73557692307693,49.88180859088897" style="fill: none;" fill="none"></path></g><g><path stroke="rgb(51, 187, 238)" stroke-width="2px" d="M8.567307692307693,65.9727234363556L21.418269230769234,57.927276563644405L34.269230769230774,57.927276563644405L47.120192307692314,53.904553127288814L59.97115384615385,61.949999999999996L72.82211538461539,74.01819140911103L85.67307692307693,49.88180859088897L98.52403846153847,61.949999999999996L111.375,57.927276563644405L124.22596153846155,45.85908515453338L137.0769230769231,49.88180859088897L149.9278846153846,41.83636171817779L162.77884615384616,45.85908515453338L175.62980769230768,57.927276563644405L188.48076923076925,29.76819140911102L201.33173076923077,25.745446872711177L214.18269230769232,45.85908515453338L227.03365384615384,37.8136382818222L239.8846153846154,25.745446872711177L252.73557692307693,25.745446872711177" style="fill: none;" fill="none"></path></g><g><path stroke="rgb(204, 51, 17)" stroke-width="2px" d="M8.567307692307693,154.47272343635558L21.418269230769234,53.904553127288814L34.269230769230774,57.927276563644405L47.120192307692314,57.927276563644405L59.97115384615385,57.927276563644405L72.82211538461539,57.927276563644405L85.67307692307693,57.927276563644405L98.52403846153847,53.904553127288814L111.375,33.79091484546661L124.22596153846155,45.85908515453338L137.0769230769231,33.79091484546661L149.9278846153846,45.85908515453338L162.77884615384616,61.949999999999996L175.62980769230768,17.699999999999996L188.48076923076925,37.8136382818222L201.33173076923077,29.76819140911102L214.18269230769232,25.745446872711177L227.03365384615384,17.699999999999996L239.8846153846154,13.677276563644405L252.73557692307693,21.722723436355587" style="fill: none;" fill="none"></path></g><g><path stroke="rgb(51, 187, 238)" stroke-width="2px" d="M8.567307692307693,114.24545742273331L21.418269230769234,126.31363828182221L34.269230769230774,98.15455312728882L47.120192307692314,94.13180859088898L59.97115384615385,98.15455312728882L72.82211538461539,82.06363828182221L85.67307692307693,110.2227234363556L98.52403846153847,90.10908515453339L111.375,98.15455312728882L124.22596153846155,65.9727234363556L137.0769230769231,106.2L149.9278846153846,106.2L162.77884615384616,90.10908515453339L175.62980769230768,154.47272343635558L188.48076923076925,106.2L201.33173076923077,65.9727234363556L214.18269230769232,82.06363828182221L227.03365384615384,82.06363828182221L239.8846153846154,61.949999999999996L252.73557692307693,74.01819140911103" style="fill: none;" fill="none"></path></g><g><path stroke="rgb(0, 119, 187)" stroke-width="2px" d="M8.567307692307693,142.40454257726668L21.418269230769234,57.927276563644405L34.269230769230774,57.927276563644405L47.120192307692314,57.927276563644405L59.97115384615385,57.927276563644405L72.82211538461539,29.76819140911102L85.67307692307693,53.904553127288814L98.52403846153847,45.85908515453338L111.375,37.8136382818222L124.22596153846155,21.722723436355587L137.0769230769231,29.76819140911102L149.9278846153846,1.6090851545333824L162.77884615384616,1.6090851545333824L175.62980769230768,37.8136382818222L188.48076923076925,53.904553127288814L201.33173076923077,29.76819140911102L214.18269230769232,9.654553127288814L227.03365384615384,13.677276563644405L239.8846153846154,17.699999999999996L252.73557692307693,25.745446872711177" style="fill: none;" fill="none"></path></g><g><path stroke="rgb(255, 112, 67)" stroke-width="2px" d="M8.567307692307693,94.13180859088898L21.418269230769234,61.949999999999996L34.269230769230774,41.83636171817779L47.120192307692314,57.927276563644405L59.97115384615385,53.904553127288814L72.82211538461539,45.85908515453338L85.67307692307693,134.3590957045555L98.52403846153847,90.10908515453339L111.375,1.6090851545333824L124.22596153846155,25.745446872711177L137.0769230769231,33.79091484546661L149.9278846153846,21.722723436355587L162.77884615384616,86.0863617181778L175.62980769230768,21.722723436355587L188.48076923076925,33.79091484546661L201.33173076923077,33.79091484546661L214.18269230769232,17.699999999999996L227.03365384615384,21.722723436355587L239.8846153846154,25.745446872711177L252.73557692307693,21.722723436355587" style="fill: none;" fill="none"></path></g></g></g></g></g></g><g transform="translate(51, 177)" clip-path="url(#clip_1)"><clipPath id="clip_1"><rect width="278" height="23"></rect></clipPath><g><g><line x1="0" y1="0" x2="0" y2="5" style="visibility: inherit;" fill="rgb(0, 0, 0)" stroke="rgb(204, 204, 204)" stroke-width="1px"></line><line x1="21.418269230769234" y1="0" x2="21.418269230769234" y2="5" style="visibility: inherit;" fill="rgb(0, 0, 0)" stroke="rgb(204, 204, 204)" stroke-width="1px"></line><line x1="42.83653846153847" y1="0" x2="42.83653846153847" y2="5" style="visibility: inherit;" fill="rgb(0, 0, 0)" stroke="rgb(204, 204, 204)" stroke-width="1px"></line><line x1="64.2548076923077" y1="0" x2="64.2548076923077" y2="5" style="visibility: inherit;" fill="rgb(0, 0, 0)" stroke="rgb(204, 204, 204)" stroke-width="1px"></line><line x1="85.67307692307693" y1="0" x2="85.67307692307693" y2="5" style="visibility: inherit;" fill="rgb(0, 0, 0)" stroke="rgb(204, 204, 204)" stroke-width="1px"></line><line x1="107.09134615384616" y1="0" x2="107.09134615384616" y2="5" style="visibility: inherit;" fill="rgb(0, 0, 0)" stroke="rgb(204, 204, 204)" stroke-width="1px"></line><line x1="128.5096153846154" y1="0" x2="128.5096153846154" y2="5" style="visibility: inherit;" fill="rgb(0, 0, 0)" stroke="rgb(204, 204, 204)" stroke-width="1px"></line><line x1="149.9278846153846" y1="0" x2="149.9278846153846" y2="5" style="visibility: inherit;" fill="rgb(0, 0, 0)" stroke="rgb(204, 204, 204)" stroke-width="1px"></line><line x1="171.34615384615387" y1="0" x2="171.34615384615387" y2="5" style="visibility: inherit;" fill="rgb(0, 0, 0)" stroke="rgb(204, 204, 204)" stroke-width="1px"></line><line x1="192.76442307692307" y1="0" x2="192.76442307692307" y2="5" style="visibility: inherit;" fill="rgb(0, 0, 0)" stroke="rgb(204, 204, 204)" stroke-width="1px"></line><line x1="214.18269230769232" y1="0" x2="214.18269230769232" y2="5" style="visibility: inherit;" fill="rgb(0, 0, 0)" stroke="rgb(204, 204, 204)" stroke-width="1px"></line><line x1="235.60096153846155" y1="0" x2="235.60096153846155" y2="5" style="visibility: inherit;" fill="rgb(0, 0, 0)" stroke="rgb(204, 204, 204)" stroke-width="1px"></line><line x1="257.0192307692308" y1="0" x2="257.0192307692308" y2="5" style="visibility: inherit;" fill="rgb(0, 0, 0)" stroke="rgb(204, 204, 204)" stroke-width="1px"></line><line x1="278.4375" y1="0" x2="278.4375" y2="5" style="visibility: inherit;" fill="rgb(0, 0, 0)" stroke="rgb(204, 204, 204)" stroke-width="1px"></line></g><g transform="translate(0, 8)"><text x="0" y="0" dx="0em" dy="0.95em" style="text-anchor: middle; visibility: hidden; font-family: Roboto, sans-serif; font-size: 12px; font-weight: 200;" fill="rgb(33, 33, 33)" stroke="none" stroke-width="1px">0</text><text x="21.418269230769234" y="0" dx="0em" dy="0.95em" style="text-anchor: middle; visibility: inherit; font-family: Roboto, sans-serif; font-size: 12px; font-weight: 200;" fill="rgb(33, 33, 33)" stroke="none" stroke-width="1px">5</text><text x="42.83653846153847" y="0" dx="0em" dy="0.95em" style="text-anchor: middle; visibility: inherit; font-family: Roboto, sans-serif; font-size: 12px; font-weight: 200;" fill="rgb(33, 33, 33)" stroke="none" stroke-width="1px">10</text><text x="64.2548076923077" y="0" dx="0em" dy="0.95em" style="text-anchor: middle; visibility: inherit; font-family: Roboto, sans-serif; font-size: 12px; font-weight: 200;" fill="rgb(33, 33, 33)" stroke="none" stroke-width="1px">15</text><text x="85.67307692307693" y="0" dx="0em" dy="0.95em" style="text-anchor: middle; visibility: inherit; font-family: Roboto, sans-serif; font-size: 12px; font-weight: 200;" fill="rgb(33, 33, 33)" stroke="none" stroke-width="1px">20</text><text x="107.09134615384616" y="0" dx="0em" dy="0.95em" style="text-anchor: middle; visibility: inherit; font-family: Roboto, sans-serif; font-size: 12px; font-weight: 200;" fill="rgb(33, 33, 33)" stroke="none" stroke-width="1px">25</text><text x="128.5096153846154" y="0" dx="0em" dy="0.95em" style="text-anchor: middle; visibility: inherit; font-family: Roboto, sans-serif; font-size: 12px; font-weight: 200;" fill="rgb(33, 33, 33)" stroke="none" stroke-width="1px">30</text><text x="149.9278846153846" y="0" dx="0em" dy="0.95em" style="text-anchor: middle; visibility: inherit; font-family: Roboto, sans-serif; font-size: 12px; font-weight: 200;" fill="rgb(33, 33, 33)" stroke="none" stroke-width="1px">35</text><text x="171.34615384615387" y="0" dx="0em" dy="0.95em" style="text-anchor: middle; visibility: inherit; font-family: Roboto, sans-serif; font-size: 12px; font-weight: 200;" fill="rgb(33, 33, 33)" stroke="none" stroke-width="1px">40</text><text x="192.76442307692307" y="0" dx="0em" dy="0.95em" style="text-anchor: middle; visibility: inherit; font-family: Roboto, sans-serif; font-size: 12px; font-weight: 200;" fill="rgb(33, 33, 33)" stroke="none" stroke-width="1px">45</text><text x="214.18269230769232" y="0" dx="0em" dy="0.95em" style="text-anchor: middle; visibility: inherit; font-family: Roboto, sans-serif; font-size: 12px; font-weight: 200;" fill="rgb(33, 33, 33)" stroke="none" stroke-width="1px">50</text><text x="235.60096153846155" y="0" dx="0em" dy="0.95em" style="text-anchor: middle; visibility: inherit; font-family: Roboto, sans-serif; font-size: 12px; font-weight: 200;" fill="rgb(33, 33, 33)" stroke="none" stroke-width="1px">55</text><text x="257.0192307692308" y="0" dx="0em" dy="0.95em" style="text-anchor: middle; visibility: inherit; font-family: Roboto, sans-serif; font-size: 12px; font-weight: 200;" fill="rgb(33, 33, 33)" stroke="none" stroke-width="1px">60</text><text x="278.4375" y="0" dx="0em" dy="0.95em" style="text-anchor: middle; visibility: hidden; font-family: Roboto, sans-serif; font-size: 12px; font-weight: 200;" fill="rgb(33, 33, 33)" stroke="none" stroke-width="1px">65</text></g><line x1="0" y1="0" x2="278.4375" y2="0" fill="rgb(0, 0, 0)" stroke="rgb(204, 204, 204)" stroke-width="1px"></line></g></g></g></g></svg>