<svg viewBox="0 0 330 200" xmlns="http://www.w3.org/2000/svg"><g><g><g><g><g><line x1="51.5625" y1="177" x2="46.5625" y2="177" style="visibility: inherit;" fill="rgb(0, 0, 0)" stroke="rgb(204, 204, 204)" stroke-width="1px"></line><line x1="51.5625" y1="162.25" x2="46.5625" y2="162.25" style="visibility: inherit;" fill="rgb(0, 0, 0)" stroke="rgb(204, 204, 204)" stroke-width="1px"></line><line x1="51.5625" y1="147.49999999999997" x2="46.5625" y2="147.49999999999997" style="visibility: inherit;" fill="rgb(0, 0, 0)" stroke="rgb(204, 204, 204)" stroke-width="1px"></line><line x1="51.5625" y1="132.74999999999997" x2="46.5625" y2="132.74999999999997" style="visibility: inherit;" fill="rgb(0, 0, 0)" stroke="rgb(204, 204, 204)" stroke-width="1px"></line><line x1="51.5625" y1="118.00000000000001" x2="46.5625" y2="118.00000000000001" style="visibility: inherit;" fill="rgb(0, 0, 0)" stroke="rgb(204, 204, 204)" stroke-width="1px"></line><line x1="51.5625" y1="103.25000000000003" x2="46.5625" y2="103.25000000000003" style="visibility: inherit;" fill="rgb(0, 0, 0)" stroke="rgb(204, 204, 204)" stroke-width="1px"></line><line x1="51.5625" y1="88.5" x2="46.5625" y2="88.5" style="visibility: inherit;" fill="rgb(0, 0, 0)" stroke="rgb(204, 204, 204)" stroke-width="1px"></line><line x1="51.5625" y1="73.75" x2="46.5625" y2="73.75" style="visibility: inherit;" fill="rgb(0, 0, 0)" stroke="rgb(204, 204, 204)" stroke-width="1px"></line><line x1="51.5625" y1="58.999999999999964" x2="46.5625" y2="58.999999999999964" style="visibility: inherit;" fill="rgb(0, 0, 0)" stroke="rgb(204, 204, 204)" stroke-width="1px"></line><line x1="51.5625" y1="44.24999999999996" x2="46.5625" y2="44.24999999999996" style="visibility: inherit;" fill="rgb(0, 0, 0)" stroke="rgb(204, 204, 204)" stroke-width="1px"></line><line x1="51.5625" y1="29.500000000000032" x2="46.5625" y2="29.500000000000032" style="visibility: inherit;" fill="rgb(0, 0, 0)" stroke="rgb(204, 204, 204)" stroke-width="1px"></line><line x1="51.5625" y1="14.750000000000007" x2="46.5625" y2="14.750000000000007" style="visibility: inherit;" fill="rgb(0, 0, 0)" stroke="rgb(204, 204, 204)" stroke-width="1px"></line><line x1="51.5625" y1="0" x2="46.5625" y2="0" style="visibility: inherit;" fill="rgb(0, 0, 0)" stroke="rgb(204, 204, 204)" stroke-width="1px"></line></g><g transform="translate(41.5625, 0)"><text x="0" y="177" dx="0em" dy="0.3em" style="text-anchor: end; visibility: hidden; font-family: Roboto, sans-serif; font-size: 12px; font-weight: 200;" fill="rgb(33, 33, 33)" stroke="none" stroke-width="1px">0.5</text><text x="0" y="162.25" dx="0em" dy="0.3em" style="text-anchor: end; visibility: inherit; font-family: Roboto, sans-serif; font-size: 12px; font-weight: 200;" fill="rgb(33, 33, 33)" stroke="none" stroke-width="1px">0.52</text><text x="0" y="147.49999999999997" dx="0em" dy="0.3em" style="text-anchor: end; visibility: hidden; font-family: Roboto, sans-serif; font-size: 12px; font-weight: 200;" fill="rgb(33, 33, 33)" stroke="none" stroke-width="1px">0.54</text><text x="0" y="132.74999999999997" dx="0em" dy="0.3em" style="text-anchor: end; visibility: inherit; font-family: Roboto, sans-serif; font-size: 12px; font-weight: 200;" fill="rgb(33, 33, 33)" stroke="none" stroke-width="1px">0.56</text><text x="0" y="118.00000000000001" dx="0em" dy="0.3em" style="text-anchor: end; visibility: hidden; font-family: Roboto, sans-serif; font-size: 12px; font-weight: 200;" fill="rgb(33, 33, 33)" stroke="none" stroke-width="1px">0.58</text><text x="0" y="103.25000000000003" dx="0em" dy="0.3em" style="text-anchor: end; visibility: inherit; font-family: Roboto, sans-serif; font-size: 12px; font-weight: 200;" fill="rgb(33, 33, 33)" stroke="none" stroke-width="1px">0.6</text><text x="0" y="88.5" dx="0em" dy="0.3em" style="text-anchor: end; visibility: hidden; font-family: Roboto, sans-serif; font-size: 12px; font-weight: 200;" fill="rgb(33, 33, 33)" stroke="none" stroke-width="1px">0.62</text><text x="0" y="73.75" dx="0em" dy="0.3em" style="text-anchor: end; visibility: inherit; font-family: Roboto, sans-serif; font-size: 12px; font-weight: 200;" fill="rgb(33, 33, 33)" stroke="none" stroke-width="1px">0.64</text><text x="0" y="58.999999999999964" dx="0em" dy="0.3em" style="text-anchor: end; visibility: hidden; font-family: Roboto, sans-serif; font-size: 12px; font-weight: 200;" fill="rgb(33, 33, 33)" stroke="none" stroke-width="1px">0.66</text><text x="0" y="44.24999999999996" dx="0em" dy="0.3em" style="text-anchor: end; visibility: inherit; font-family: Roboto, sans-serif; font-size: 12px; font-weight: 200;" fill="rgb(33, 33, 33)" stroke="none" stroke-width="1px">0.68</text><text x="0" y="29.500000000000032" dx="0em" dy="0.3em" style="text-anchor: end; visibility: hidden; font-family: Roboto, sans-serif; font-size: 12px; font-weight: 200;" fill="rgb(33, 33, 33)" stroke="none" stroke-width="1px">0.7</text><text x="0" y="14.750000000000007" dx="0em" dy="0.3em" style="text-anchor: end; visibility: inherit; font-family: Roboto, sans-serif; font-size: 12px; font-weight: 200;" fill="rgb(33, 33, 33)" stroke="none" stroke-width="1px">0.72</text><text x="0" y="0" dx="0em" dy="0.3em" style="text-anchor: end; visibility: hidden; font-family: Roboto, sans-serif; font-size: 12px; font-weight: 200;" fill="rgb(33, 33, 33)" stroke="none" stroke-width="1px">0.74</text></g><line x1="51.5625" y1="0" x2="51.5625" y2="177" fill="rgb(0, 0, 0)" stroke="rgb(204, 204, 204)" stroke-width="1px"></line></g></g><g transform="translate(51, 0)" clip-path="url(#clip_0)"><clipPath id="clip_0"><rect width="278" height="177"></rect></clipPath><g><g><g><line x1="0" y1="0" x2="0" y2="177" fill="rgb(0, 0, 0)" stroke="rgb(66, 66, 66)" stroke-width="1px" opacity="0.25"></line><line x1="21.418269230769234" y1="0" x2="21.418269230769234" y2="177" fill="rgb(0, 0, 0)" stroke="rgb(66, 66, 66)" stroke-width="1px" opacity="0.25"></line><line x1="42.83653846153847" y1="0" x2="42.83653846153847" y2="177" fill="rgb(0, 0, 0)" stroke="rgb(66, 66, 66)" stroke-width="1px" opacity="0.25"></line><line x1="64.2548076923077" y1="0" x2="64.2548076923077" y2="177" fill="rgb(0, 0, 0)" stroke="rgb(66, 66, 66)" stroke-width="1px" opacity="0.25"></line><line x1="85.67307692307693" y1="0" x2="85.67307692307693" y2="177" fill="rgb(0, 0, 0)" stroke="rgb(66, 66, 66)" stroke-width="1px" opacity="0.25"></line><line x1="107.09134615384616" y1="0" x2="107.09134615384616" y2="177" fill="rgb(0, 0, 0)" stroke="rgb(66, 66, 66)" stroke-width="1px" opacity="0.25"></line><line x1="128.5096153846154" y1="0" x2="128.5096153846154" y2="177" fill="rgb(0, 0, 0)" stroke="rgb(66, 66, 66)" stroke-width="1px" opacity="0.25"></line><line x1="149.9278846153846" y1="0" x2="149.9278846153846" y2="177" fill="rgb(0, 0, 0)" stroke="rgb(66, 66, 66)" stroke-width="1px" opacity="0.25"></line><line x1="171.34615384615387" y1="0" x2="171.34615384615387" y2="177" fill="rgb(0, 0, 0)" stroke="rgb(66, 66, 66)" stroke-width="1px" opacity="0.25"></line><line x1="192.76442307692307" y1="0" x2="192.76442307692307" y2="177" fill="rgb(0, 0, 0)" stroke="rgb(66, 66, 66)" stroke-width="1px" opacity="0.25"></line><line x1="214.18269230769232" y1="0" x2="214.18269230769232" y2="177" fill="rgb(0, 0, 0)" stroke="rgb(66, 66, 66)" stroke-width="1px" opacity="0.25"></line><line x1="235.60096153846155" y1="0" x2="235.60096153846155" y2="177" fill="rgb(0, 0, 0)" stroke="rgb(66, 66, 66)" stroke-width="1px" opacity="0.25"></line><line x1="257.0192307692308" y1="0" x2="257.0192307692308" y2="177" fill="rgb(0, 0, 0)" stroke="rgb(66, 66, 66)" stroke-width="1px" opacity="0.25"></line><line x1="278.4375" y1="0" x2="278.4375" y2="177" fill="rgb(0, 0, 0)" stroke="rgb(66, 66, 66)" stroke-width="1px" opacity="0.25"></line></g><g><line x1="0" y1="177" x2="278.4375" y2="177" fill="rgb(0, 0, 0)" stroke="rgb(66, 66, 66)" stroke-width="1px" opacity="0.25"></line><line x1="0" y1="162.25" x2="278.4375" y2="162.25" fill="rgb(0, 0, 0)" stroke="rgb(66, 66, 66)" stroke-width="1px" opacity="0.25"></line><line x1="0" y1="147.49999999999997" x2="278.4375" y2="147.49999999999997" fill="rgb(0, 0, 0)" stroke="rgb(66, 66, 66)" stroke-width="1px" opacity="0.25"></line><line x1="0" y1="132.74999999999997" x2="278.4375" y2="132.74999999999997" fill="rgb(0, 0, 0)" stroke="rgb(66, 66, 66)" stroke-width="1px" opacity="0.25"></line><line x1="0" y1="118.00000000000001" x2="278.4375" y2="118.00000000000001" fill="rgb(0, 0, 0)" stroke="rgb(66, 66, 66)" stroke-width="1px" opacity="0.25"></line><line x1="0" y1="103.25000000000003" x2="278.4375" y2="103.25000000000003" fill="rgb(0, 0, 0)" stroke="rgb(66, 66, 66)" stroke-width="1px" opacity="0.25"></line><line x1="0" y1="88.5" x2="278.4375" y2="88.5" fill="rgb(0, 0, 0)" stroke="rgb(66, 66, 66)" stroke-width="1px" opacity="0.25"></line><line x1="0" y1="73.75" x2="278.4375" y2="73.75" fill="rgb(0, 0, 0)" stroke="rgb(66, 66, 66)" stroke-width="1px" opacity="0.25"></line><line x1="0" y1="58.999999999999964" x2="278.4375" y2="58.999999999999964" fill="rgb(0, 0, 0)" stroke="rgb(66, 66, 66)" stroke-width="1px" opacity="0.25"></line><line x1="0" y1="44.24999999999996" x2="278.4375" y2="44.24999999999996" fill="rgb(0, 0, 0)" stroke="rgb(66, 66, 66)" stroke-width="1px" opacity="0.25"></line><line x1="0" y1="29.500000000000032" x2="278.4375" y2="29.500000000000032" fill="rgb(0, 0, 0)" stroke="rgb(66, 66, 66)" stroke-width="1px" opacity="0.25"></line><line x1="0" y1="14.750000000000007" x2="278.4375" y2="14.750000000000007" fill="rgb(0, 0, 0)" stroke="rgb(66, 66, 66)" stroke-width="1px" opacity="0.25"></line><line x1="0" y1="0" x2="278.4375" y2="0" fill="rgb(0, 0, 0)" stroke="rgb(66, 66, 66)" stroke-width="1px" opacity="0.25"></line></g></g></g><g><g><line x1="0" y1="545.75" x2="278.4375" y2="545.75" fill="rgb(0, 0, 0)" stroke="rgb(153, 153, 153)" stroke-width="1.5px"></line></g></g><g><g><line x1="0" y1="0" x2="0" y2="177" fill="rgb(0, 0, 0)" stroke="rgb(153, 153, 153)" stroke-width="1.5px"></line></g></g><g><g><g><g><g><path stroke="rgb(204, 51, 17)" stroke-width="2px" d="M8.567307692307693,37.855626314878464L21.418269230769234,38.22596289284148L34.269230769230774,33.601703982893945L47.120192307692314,35.476955157230975L59.97115384615385,35.262132124597386L72.82211538461539,37.83597253455051L85.67307692307693,34.909786435950124L98.52403846153847,31.48539269722284L111.375,37.44310597838945L124.22596153846155,37.447125541214156L137.0769230769231,37.22338089713475L149.9278846153846,37.58308187401748L162.77884615384616,37.773477983029345L175.62980769230768,39.18113970115828L188.48076923076925,40.03276612371382L201.33173076923077,45.008082832162444L214.18269230769232,41.54919212682779L227.03365384615384,45.6194737392043L239.8846153846154,44.00529999497244L252.73557692307693,44.94923731323183" style="fill: none;" fill="none"></path></g><g><path stroke="rgb(0, 119, 187)" stroke-width="2px" d="M8.567307692307693,37.693507641553865L21.418269230769234,36.714788670294276L34.269230769230774,38.742735859997396L47.120192307692314,42.074680712153146L59.97115384615385,45.38619493998075L72.82211538461539,47.706365769676616L85.67307692307693,52.19042840979934L98.52403846153847,49.34372573880322L111.375,53.198043298828864L124.22596153846155,51.070801984914795L137.0769230769231,60.084067476671244L149.9278846153846,61.345858653978375L162.77884615384616,61.346606768672046L175.62980769230768,56.341813545621605L188.48076923076925,56.75684682572634L201.33173076923077,58.39314960631621L214.18269230769232,59.65229140543108L227.03365384615384,60.206555176874225L239.8846153846154,53.3846748366283L252.73557692307693,66.89814695402316" style="fill: none;" fill="none"></path></g><g><path stroke="rgb(255, 112, 67)" stroke-width="2px" d="M8.567307692307693,30.913711756467897L21.418269230769234,33.098559071094655L34.269230769230774,34.24356326920561L47.120192307692314,34.12937318958703L59.97115384615385,37.07006466285128L72.82211538461539,38.35044787328964L85.67307692307693,40.92764173127786L98.52403846153847,41.76090155821794L111.375,42.36053927528656L124.22596153846155,44.19496800937721L137.0769230769231,48.77423233913439L149.9278846153846,54.71539788377795L162.77884615384616,58.005016522463755L175.62980769230768,55.55014277645734L188.48076923076925,54.91575367889154L201.33173076923077,52.179715243829634L214.18269230769232,49.070077092220586L227.03365384615384,53.99378739328996L239.8846153846154,53.058135671703575L252.73557692307693,51.15725564119623" style="fill: none;" fill="none"></path></g><g><path stroke="rgb(187, 187, 187)" stroke-width="2px" d="M8.567307692307693,38.74837797880171L21.418269230769234,37.08582434510767L34.269230769230774,45.10706960295947L47.120192307692314,42.68101925976288L59.97115384615385,44.53993416369914L72.82211538461539,48.47110279426388L85.67307692307693,49.52807877287472L98.52403846153847,54.34457055223399L111.375,58.08090295160728L124.22596153846155,62.93661153527007L137.0769230769231,60.27996599091291L149.9278846153846,58.35141702616473L162.77884615384616,60.39916987254084L175.62980769230768,63.81192519177447L188.48076923076925,61.02605291879842L201.33173076923077,57.838236606609556L214.18269230769232,59.513891280291666L227.03365384615384,69.7271028732732L239.8846153846154,63.511405332642234L252.73557692307693,66.7033838139183" style="fill: none;" fill="none"></path></g><g><path stroke="rgb(0, 153, 136)" stroke-width="2px" d="M8.567307692307693,70.23716089129447L21.418269230769234,64.85201832276518L34.269230769230774,64.77926946604897L47.120192307692314,58.38139679057797L59.97115384615385,59.66450086911432L72.82211538461539,58.42457969745656L85.67307692307693,57.51601893516973L98.52403846153847,58.710843099457826L111.375,63.00404748059589L124.22596153846155,65.16814672516595L137.0769230769231,71.00201991491804L149.9278846153846,67.6573205100197L162.77884615384616,73.44394231336722L175.62980769230768,68.65427220551467L188.48076923076925,71.6297261846066L201.33173076923077,74.91634635746583L214.18269230769232,79.35133146617137L227.03365384615384,76.62938851274963L239.8846153846154,80.68295666826805L252.73557692307693,79.9466524030514" style="fill: none;" fill="none"></path></g><g><path stroke="rgb(238, 51, 119)" stroke-width="2px" d="M8.567307692307693,33.30188509821891L21.418269230769234,31.8326986784934L34.269230769230774,41.7095111590674L47.120192307692314,54.52077863852543L59.97115384615385,48.4212906419537L72.82211538461539,55.07131887697379L85.67307692307693,58.87695388372444L98.52403846153847,62.4322912350247L111.375,68.00303121174902L124.22596153846155,70.82700084573803L137.0769230769231,68.72244497934719L149.9278846153846,71.79671712749958L162.77884615384616,68.87293267746594L175.62980769230768,74.15355986128121L188.48076923076925,77.94798282509079L201.33173076923077,77.42415374486806L214.18269230769232,77.80531838457708L227.03365384615384,84.62858380478389L239.8846153846154,88.318299415972L252.73557692307693,85.92199388273568" style="fill: none;" fill="none"></path></g><g><path stroke="rgb(51, 187, 238)" stroke-width="2px" d="M8.567307692307693,48.2213307619094L21.418269230769234,37.30260630388571L34.269230769230774,41.92981970931264L47.120192307692314,57.943080742220296L59.97115384615385,69.58306887545534L72.82211538461539,67.77952636759083L85.67307692307693,70.50757373163152L98.52403846153847,63.45615393383815L111.375,72.76643986534953L124.22596153846155,78.05506777510261L137.0769230769231,85.67120654628917L149.9278846153846,91.99837823341893L162.77884615384616,98.3758473514545L175.62980769230768,92.59814612653531L188.48076923076925,102.11560877598791L201.33173076923077,113.8697400017076L214.18269230769232,109.29942938665941L227.03365384615384,110.08614178432437L239.8846153846154,113.16998701439917L252.73557692307693,114.84136229015498" style="fill: none;" fill="none"></path></g><g><path stroke="rgb(204, 51, 17)" stroke-width="2px" d="M8.567307692307693,26.305330216884613L21.418269230769234,48.71171804926427L34.269230769230774,43.425204551477805L47.120192307692314,45.693238470972226L59.97115384615385,55.045980883197586L72.82211538461539,64.61384396940753L85.67307692307693,75.64614171142507L98.52403846153847,84.65189688752871L111.375,89.84276926919108L124.22596153846155,92.29010083548803L137.0769230769231,102.63340063288825L149.9278846153846,106.07342493371378L162.77884615384616,99.87503469981716L175.62980769230768,107.27641387002994L188.48076923076925,116.51845622419452L201.33173076923077,123.73924213483667L214.18269230769232,128.65143353853816L227.03365384615384,132.85720239503087L239.8846153846154,139.64319199935147L252.73557692307693,137.52689417294954" style="fill: none;" fill="none"></path></g><g><path stroke="rgb(51, 187, 238)" stroke-width="2px" d="M8.567307692307693,41.60611522197722L21.418269230769234,35.89212928369651L34.269230769230774,40.460641312702855L47.120192307692314,43.33786200512375L59.97115384615385,43.22646899610222L72.82211538461539,42.273911682809974L85.67307692307693,42.15540977846477L98.52403846153847,40.35675014766492L111.375,39.50515024570827L124.22596153846155,43.920489145065154L137.0769230769231,44.30752521192439L149.9278846153846,41.62707629707683L162.77884615384616,39.18248993000348L175.62980769230768,34.936958145238876L188.48076923076925,38.081478780650144L201.33173076923077,44.4449968463395L214.18269230769232,45.75652658850112L227.03365384615384,48.40227050122186L239.8846153846154,47.09479505617994L252.73557692307693,47.42361035967817" style="fill: none;" fill="none"></path></g><g><path stroke="rgb(0, 119, 187)" stroke-width="2px" d="M8.567307692307693,14.30991110205649L21.418269230769234,49.65943768842087L34.269230769230774,59.243598779744076L47.120192307692314,77.91094903467949L59.97115384615385,70.55894602289524L72.82211538461539,90.1119771699611L85.67307692307693,92.35704085149642L98.52403846153847,88.5733041549569L111.375,86.58616091392373L124.22596153846155,111.21293417707365L137.0769230769231,110.22067891460193L149.9278846153846,129.33721580341128L162.77884615384616,136.0342963814066L175.62980769230768,120.49987709117558L188.48076923076925,118.16394239055663L201.33173076923077,119.98849846814306L214.18269230769232,135.36068576865L227.03365384615384,137.63649642133055L239.8846153846154,139.7048901196385L252.73557692307693,147.74993488770252" style="fill: none;" fill="none"></path></g><g><path stroke="rgb(255, 112, 67)" stroke-width="2px" d="M8.567307692307693,34.4783444404602L21.418269230769234,46.84099376554681L34.269230769230774,66.02158894441297L47.120192307692314,72.3725820093932L59.97115384615385,82.19771768537895L72.82211538461539,80.46262869199076L85.67307692307693,55.78571386458791L98.52403846153847,28.812286906168698L111.375,86.45137128358935L124.22596153846155,108.47056026345443L137.0769230769231,108.64873667275589L149.9278846153846,121.30573556739795L162.77884615384616,97.87147712319992L175.62980769230768,108.09400931767505L188.48076923076925,98.17537985262985L201.33173076923077,123.18100070189215L214.18269230769232,131.92224367997682L227.03365384615384,147.0737660009367L239.8846153846154,162.69427261563166L252.73557692307693,140.71240659159682" style="fill: none;" fill="none"></path></g></g></g></g><g opacity="0.2"><g><g><g><path stroke="rgb(204, 51, 17)" stroke-width="2px" d="M8.567307692307693,37.855626314878464L21.418269230769234,38.44335046410559L34.269230769230774,29.293887734413147L47.120192307692314,37.60317307710646L59.97115384615385,34.99305364489555L72.82211538461539,41.239238202571855L85.67307692307693,30.92092093825339L98.52403846153847,26.73515570163726L111.375,45.79148483276367L124.22596153846155,37.45279130339622L137.0769230769231,36.906915575265884L149.9278846153846,38.09286993741989L162.77884615384616,38.043636500835404L175.62980769230768,41.179894328117356L188.48076923076925,41.24249112606048L201.33173076923077,52.077144056558595L214.18269230769232,36.63402166962622L227.03365384615384,51.40392076969145L239.8846153846154,41.711219817399964L252.73557692307693,46.290808588266366" style="fill: none;" fill="none"></path></g><g><path stroke="rgb(0, 119, 187)" stroke-width="2px" d="M8.567307692307693,37.693507641553865L21.418269230769234,36.140280634164796L34.269230769230774,40.631908595561974L47.120192307692314,45.85254308581352L59.97115384615385,49.534061223268495L72.82211538461539,50.77421632409094L85.67307692307693,58.30293190479278L98.52403846153847,45.39484795928001L111.375,58.59899190068244L124.22596153846155,48.07235565781592L137.0769230769231,72.83246633410452L149.9278846153846,63.13413870334625L162.77884615384616,61.34766829013824L175.62980769230768,49.23545163869857L188.48076923076925,57.34639656543732L201.33173076923077,60.71805176138878L214.18269230769232,61.44156348705291L227.03365384615384,60.99424254894256L239.8846153846154,43.68934896588324L252.73557692307693,86.10417437553406" style="fill: none;" fill="none"></path></g><g><path stroke="rgb(255, 112, 67)" stroke-width="2px" d="M8.567307692307693,30.91371175646782L21.418269230769234,34.381064444780336L34.269230769230774,35.3102136850357L47.120192307692314,33.999900937080376L59.97115384615385,40.7534536421299L72.82211538461539,40.04343715310097L85.67307692307693,44.440774291753755L98.52403846153847,42.916779637336724L111.375,43.20079502463341L124.22596153846155,46.780681282281876L137.0769230769231,55.25116217136383L149.9278846153846,63.13554537296294L162.77884615384616,62.6727510690689L175.62980769230768,52.06444007158279L188.48076923076925,54.01461166143417L201.33173076923077,48.292279660701745L214.18269230769232,44.65120327472686L227.03365384615384,60.991077542304986L239.8846153846154,51.72837790846825L252.73557692307693,48.45562916994095" style="fill: none;" fill="none"></path></g><g><path stroke="rgb(187, 187, 187)" stroke-width="2px" d="M8.567307692307693,38.74837797880171L21.418269230769234,36.109905362129204L34.269230769230774,52.57941302657127L47.120192307692314,39.930288165807724L59.97115384615385,46.86833438277243L72.82211538461539,53.66909843683242L85.67307692307693,50.968908190727234L98.52403846153847,61.02589261531829L111.375,63.31652221083641L124.22596153846155,69.78096035122871L137.0769230769231,56.52239587903021L149.9278846153846,55.61817106604576L162.77884615384616,63.304785311222076L175.62980769230768,68.65773466229439L188.48076923076925,57.068755149841294L201.33173076923077,53.308903098106384L214.18269230769232,61.89503860473633L227.03365384615384,84.24152401089667L239.8846153846154,54.67759263515471L252.73557692307693,71.23998445272446" style="fill: none;" fill="none"></path></g><g><path stroke="rgb(0, 153, 136)" stroke-width="2px" d="M8.567307692307693,70.23716089129447L21.418269230769234,61.69093963503837L34.269230769230774,64.71149888634682L47.120192307692314,51.12729039788246L59.97115384615385,61.271664172410965L72.82211538461539,56.78509142994879L85.67307692307693,56.277503490447984L98.52403846153847,60.3682745695114L111.375,69.01999604701996L124.22596153846155,68.21854603290556L137.0769230769231,79.25347355008124L149.9278846153846,62.91702803969382L162.77884615384616,81.65474650263786L175.62980769230768,61.853366017341614L188.48076923076925,75.85632246732712L201.33173076923077,79.58606299757956L214.18269230769232,85.65355655550957L227.03365384615384,72.76112180948256L239.8846153846154,86.44392904639244L252.73557692307693,78.90017968416213" style="fill: none;" fill="none"></path></g><g><path stroke="rgb(238, 51, 119)" stroke-width="2px" d="M8.567307692307693,33.30188509821891L21.418269230769234,30.97028625011444L34.269230769230774,50.91044348478316L47.120192307692314,69.04659089446066L59.97115384615385,40.781323283910744L72.82211538461539,63.86433210968971L85.67307692307693,64.06465065479279L98.52403846153847,67.36417007446289L111.375,75.80915507674216L124.22596153846155,74.80751839280128L137.0769230769231,65.7457527220249L149.9278846153846,76.15374517440794L162.77884615384616,64.72429078817368L175.62980769230768,81.65158149600029L188.48076923076925,83.33791461586951L201.33173076923077,76.67988356947899L214.18269230769232,78.34696289896964L227.03365384615384,94.32541099190712L239.8846153846154,93.56216084957123L252.73557692307693,82.51624372601509" style="fill: none;" fill="none"></path></g><g><path stroke="rgb(51, 187, 238)" stroke-width="2px" d="M8.567307692307693,48.22133076190948L21.418269230769234,30.893315047025673L34.269230769230774,46.24038827419281L47.120192307692314,76.09941256046294L59.97115384615385,84.16283842921257L72.82211538461539,65.39478865265846L85.67307692307693,74.2263440489769L98.52403846153847,53.67459324002266L111.375,85.81268605589865L124.22596153846155,85.50963667035101L137.0769230769231,96.44350376725197L149.9278846153846,100.96559491753578L162.77884615384616,107.4250217974186L175.62980769230768,84.39432349801064L188.48076923076925,115.63504901528358L201.33173076923077,130.57031971216202L214.18269230769232,102.80490335822105L227.03365384615384,111.20417159795761L239.8846153846154,117.55277928709984L252.73557692307693,117.21680504083632" style="fill: none;" fill="none"></path></g><g><path stroke="rgb(204, 51, 17)" stroke-width="2px" d="M8.567307692307693,26.305330216884613L21.418269230769234,61.86426770687102L34.269230769230774,38.500452458858476L47.120192307692314,48.264805644750595L59.97115384615385,66.76084068417549L72.82211538461539,77.26497021317482L85.67307692307693,90.68495002388953L98.52403846153847,97.14446482062338L111.375,97.11659517884254L124.22596153846155,95.73972937464713L137.0769230769231,117.2630053460598L149.9278846153846,110.94881710410118L162.77884615384616,91.07996043562889L175.62980769230768,117.78571498394011L188.48076923076925,129.6466652750969L201.33173076923077,133.9987252354622L214.18269230769232,135.63178074359894L227.03365384615384,138.83419600129128L239.8846153846154,149.28750959038734L252.73557692307693,134.51910507678986" style="fill: none;" fill="none"></path></g><g><path stroke="rgb(51, 187, 238)" stroke-width="2px" d="M8.567307692307693,41.60611522197722L21.418269230769234,32.53801953792572L34.269230769230774,44.71652549505232L47.120192307692314,46.600144028663635L59.97115384615385,43.0869427025318L72.82211538461539,41.01439085602759L85.67307692307693,41.99387249350548L98.52403846153847,37.86169257760048L111.375,38.31182685494422L124.22596153846155,50.14411625266074L137.0769230769231,44.85495057702064L149.9278846153846,37.82819625735283L162.77884615384616,35.7137959897518L175.62980769230768,28.90868005156517L188.48076923076925,42.54823219776152L201.33173076923077,53.48645117878913L214.18269230769232,47.62024325132369L227.03365384615384,52.16224756836891L239.8846153846154,45.236597627401345L252.73557692307693,47.890939235687256" style="fill: none;" fill="none"></path></g><g><path stroke="rgb(0, 119, 187)" stroke-width="2px" d="M8.567307692307693,14.30991110205649L21.418269230769234,70.4096097946167L34.269230769230774,68.1719061434269L47.120192307692314,99.07656949758528L59.97115384615385,61.35012996196747L72.82211538461539,115.9660120010376L85.67307692307693,95.41742619872092L98.52403846153847,83.32459521293639L111.375,83.80163204669952L124.22596153846155,145.9255252480507L137.0769230769231,108.81722909212112L149.9278846153846,156.4302262365818L162.77884615384616,145.53697672486305L175.62980769230768,98.44238129258154L188.48076923076925,114.84577548503876L201.33173076923077,122.58087587356567L214.18269230769232,157.2049495279789L227.03365384615384,140.8707458972931L239.8846153846154,142.64451232552528L252.73557692307693,159.1839578449726" style="fill: none;" fill="none"></path></g><g><path stroke="rgb(255, 112, 67)" stroke-width="2px" d="M8.567307692307693,34.4783444404602L21.418269230769234,54.097868919372544L34.269230769230774,83.88963681459427L47.120192307692314,79.57353484630583L59.97115384615385,94.50427782535553L72.82211538461539,78.16840377449988L85.67307692307693,22.14708295464515L98.52403846153847,-8.604605078697217L111.375,167.21942615509033L124.22596153846155,139.50763908028603L137.0769230769231,108.90075010061263L149.9278846153846,139.24393248558044L162.77884615384616,64.61993348598479L175.62980769230768,122.6090971827507L188.48076923076925,84.08608701825142L201.33173076923077,158.70964643359184L214.18269230769232,144.34376922249794L227.03365384615384,168.60622656345367L239.8846153846154,184.8942958265543L252.73557692307693,109.47067108750343" style="fill: none;" fill="none"></path></g></g></g></g></g></g><g transform="translate(51, 177)" clip-path="url(#clip_1)"><clipPath id="clip_1"><rect width="278" height="23"></rect></clipPath><g><g><line x1="0" y1="0" x2="0" y2="5" style="visibility: inherit;" fill="rgb(0, 0, 0)" stroke="rgb(204, 204, 204)" stroke-width="1px"></line><line x1="21.418269230769234" y1="0" x2="21.418269230769234" y2="5" style="visibility: inherit;" fill="rgb(0, 0, 0)" stroke="rgb(204, 204, 204)" stroke-width="1px"></line><line x1="42.83653846153847" y1="0" x2="42.83653846153847" y2="5" style="visibility: inherit;" fill="rgb(0, 0, 0)" stroke="rgb(204, 204, 204)" stroke-width="1px"></line><line x1="64.2548076923077" y1="0" x2="64.2548076923077" y2="5" style="visibility: inherit;" fill="rgb(0, 0, 0)" stroke="rgb(204, 204, 204)" stroke-width="1px"></line><line x1="85.67307692307693" y1="0" x2="85.67307692307693" y2="5" style="visibility: inherit;" fill="rgb(0, 0, 0)" stroke="rgb(204, 204, 204)" stroke-width="1px"></line><line x1="107.09134615384616" y1="0" x2="107.09134615384616" y2="5" style="visibility: inherit;" fill="rgb(0, 0, 0)" stroke="rgb(204, 204, 204)" stroke-width="1px"></line><line x1="128.5096153846154" y1="0" x2="128.5096153846154" y2="5" style="visibility: inherit;" fill="rgb(0, 0, 0)" stroke="rgb(204, 204, 204)" stroke-width="1px"></line><line x1="149.9278846153846" y1="0" x2="149.9278846153846" y2="5" style="visibility: inherit;" fill="rgb(0, 0, 0)" stroke="rgb(204, 204, 204)" stroke-width="1px"></line><line x1="171.34615384615387" y1="0" x2="171.34615384615387" y2="5" style="visibility: inherit;" fill="rgb(0, 0, 0)" stroke="rgb(204, 204, 204)" stroke-width="1px"></line><line x1="192.76442307692307" y1="0" x2="192.76442307692307" y2="5" style="visibility: inherit;" fill="rgb(0, 0, 0)" stroke="rgb(204, 204, 204)" stroke-width="1px"></line><line x1="214.18269230769232" y1="0" x2="214.18269230769232" y2="5" style="visibility: inherit;" fill="rgb(0, 0, 0)" stroke="rgb(204, 204, 204)" stroke-width="1px"></line><line x1="235.60096153846155" y1="0" x2="235.60096153846155" y2="5" style="visibility: inherit;" fill="rgb(0, 0, 0)" stroke="rgb(204, 204, 204)" stroke-width="1px"></line><line x1="257.0192307692308" y1="0" x2="257.0192307692308" y2="5" style="visibility: inherit;" fill="rgb(0, 0, 0)" stroke="rgb(204, 204, 204)" stroke-width="1px"></line><line x1="278.4375" y1="0" x2="278.4375" y2="5" style="visibility: inherit;" fill="rgb(0, 0, 0)" stroke="rgb(204, 204, 204)" stroke-width="1px"></line></g><g transform="translate(0, 8)"><text x="0" y="0" dx="0em" dy="0.95em" style="text-anchor: middle; visibility: hidden; font-family: Roboto, sans-serif; font-size: 12px; font-weight: 200;" fill="rgb(33, 33, 33)" stroke="none" stroke-width="1px">0</text><text x="21.418269230769234" y="0" dx="0em" dy="0.95em" style="text-anchor: middle; visibility: inherit; font-family: Roboto, sans-serif; font-size: 12px; font-weight: 200;" fill="rgb(33, 33, 33)" stroke="none" stroke-width="1px">5</text><text x="42.83653846153847" y="0" dx="0em" dy="0.95em" style="text-anchor: middle; visibility: inherit; font-family: Roboto, sans-serif; font-size: 12px; font-weight: 200;" fill="rgb(33, 33, 33)" stroke="none" stroke-width="1px">10</text><text x="64.2548076923077" y="0" dx="0em" dy="0.95em" style="text-anchor: middle; visibility: inherit; font-family: Roboto, sans-serif; font-size: 12px; font-weight: 200;" fill="rgb(33, 33, 33)" stroke="none" stroke-width="1px">15</text><text x="85.67307692307693" y="0" dx="0em" dy="0.95em" style="text-anchor: middle; visibility: inherit; font-family: Roboto, sans-serif; font-size: 12px; font-weight: 200;" fill="rgb(33, 33, 33)" stroke="none" stroke-width="1px">20</text><text x="107.09134615384616" y="0" dx="0em" dy="0.95em" style="text-anchor: middle; visibility: inherit; font-family: Roboto, sans-serif; font-size: 12px; font-weight: 200;" fill="rgb(33, 33, 33)" stroke="none" stroke-width="1px">25</text><text x="128.5096153846154" y="0" dx="0em" dy="0.95em" style="text-anchor: middle; visibility: inherit; font-family: Roboto, sans-serif; font-size: 12px; font-weight: 200;" fill="rgb(33, 33, 33)" stroke="none" stroke-width="1px">30</text><text x="149.9278846153846" y="0" dx="0em" dy="0.95em" style="text-anchor: middle; visibility: inherit; font-family: Roboto, sans-serif; font-size: 12px; font-weight: 200;" fill="rgb(33, 33, 33)" stroke="none" stroke-width="1px">35</text><text x="171.34615384615387" y="0" dx="0em" dy="0.95em" style="text-anchor: middle; visibility: inherit; font-family: Roboto, sans-serif; font-size: 12px; font-weight: 200;" fill="rgb(33, 33, 33)" stroke="none" stroke-width="1px">40</text><text x="192.76442307692307" y="0" dx="0em" dy="0.95em" style="text-anchor: middle; visibility: inherit; font-family: Roboto, sans-serif; font-size: 12px; font-weight: 200;" fill="rgb(33, 33, 33)" stroke="none" stroke-width="1px">45</text><text x="214.18269230769232" y="0" dx="0em" dy="0.95em" style="text-anchor: middle; visibility: inherit; font-family: Roboto, sans-serif; font-size: 12px; font-weight: 200;" fill="rgb(33, 33, 33)" stroke="none" stroke-width="1px">50</text><text x="235.60096153846155" y="0" dx="0em" dy="0.95em" style="text-anchor: middle; visibility: inherit; font-family: Roboto, sans-serif; font-size: 12px; font-weight: 200;" fill="rgb(33, 33, 33)" stroke="none" stroke-width="1px">55</text><text x="257.0192307692308" y="0" dx="0em" dy="0.95em" style="text-anchor: middle; visibility: inherit; font-family: Roboto, sans-serif; font-size: 12px; font-weight: 200;" fill="rgb(33, 33, 33)" stroke="none" stroke-width="1px">60</text><text x="278.4375" y="0" dx="0em" dy="0.95em" style="text-anchor: middle; visibility: hidden; font-family: Roboto, sans-serif; font-size: 12px; font-weight: 200;" fill="rgb(33, 33, 33)" stroke="none" stroke-width="1px">65</text></g><line x1="0" y1="0" x2="278.4375" y2="0" fill="rgb(0, 0, 0)" stroke="rgb(204, 204, 204)" stroke-width="1px"></line></g></g></g></g></svg>