<svg viewBox="0 0 330 200" xmlns="http://www.w3.org/2000/svg"><g><g><g><g><g><line x1="51.5625" y1="177" x2="46.5625" y2="177" style="visibility: inherit;" fill="rgb(0, 0, 0)" stroke="rgb(204, 204, 204)" stroke-width="1px"></line><line x1="51.5625" y1="159.29999999999998" x2="46.5625" y2="159.29999999999998" style="visibility: inherit;" fill="rgb(0, 0, 0)" stroke="rgb(204, 204, 204)" stroke-width="1px"></line><line x1="51.5625" y1="141.6" x2="46.5625" y2="141.6" style="visibility: inherit;" fill="rgb(0, 0, 0)" stroke="rgb(204, 204, 204)" stroke-width="1px"></line><line x1="51.5625" y1="123.89999999999999" x2="46.5625" y2="123.89999999999999" style="visibility: inherit;" fill="rgb(0, 0, 0)" stroke="rgb(204, 204, 204)" stroke-width="1px"></line><line x1="51.5625" y1="106.19999999999997" x2="46.5625" y2="106.19999999999997" style="visibility: inherit;" fill="rgb(0, 0, 0)" stroke="rgb(204, 204, 204)" stroke-width="1px"></line><line x1="51.5625" y1="88.5" x2="46.5625" y2="88.5" style="visibility: inherit;" fill="rgb(0, 0, 0)" stroke="rgb(204, 204, 204)" stroke-width="1px"></line><line x1="51.5625" y1="70.79999999999998" x2="46.5625" y2="70.79999999999998" style="visibility: inherit;" fill="rgb(0, 0, 0)" stroke="rgb(204, 204, 204)" stroke-width="1px"></line><line x1="51.5625" y1="53.10000000000001" x2="46.5625" y2="53.10000000000001" style="visibility: inherit;" fill="rgb(0, 0, 0)" stroke="rgb(204, 204, 204)" stroke-width="1px"></line><line x1="51.5625" y1="35.39999999999999" x2="46.5625" y2="35.39999999999999" style="visibility: inherit;" fill="rgb(0, 0, 0)" stroke="rgb(204, 204, 204)" stroke-width="1px"></line><line x1="51.5625" y1="17.699999999999978" x2="46.5625" y2="17.699999999999978" style="visibility: inherit;" fill="rgb(0, 0, 0)" stroke="rgb(204, 204, 204)" stroke-width="1px"></line><line x1="51.5625" y1="0" x2="46.5625" y2="0" style="visibility: inherit;" fill="rgb(0, 0, 0)" stroke="rgb(204, 204, 204)" stroke-width="1px"></line></g><g transform="translate(41.5625, 0)"><text x="0" y="177" dx="0em" dy="0.3em" style="text-anchor: end; visibility: hidden; font-family: Roboto, sans-serif; font-size: 12px; font-weight: 200;" fill="rgb(33, 33, 33)" stroke="none" stroke-width="1px">0.35</text><text x="0" y="159.29999999999998" dx="0em" dy="0.3em" style="text-anchor: end; visibility: inherit; font-family: Roboto, sans-serif; font-size: 12px; font-weight: 200;" fill="rgb(33, 33, 33)" stroke="none" stroke-width="1px">0.4</text><text x="0" y="141.6" dx="0em" dy="0.3em" style="text-anchor: end; visibility: hidden; font-family: Roboto, sans-serif; font-size: 12px; font-weight: 200;" fill="rgb(33, 33, 33)" stroke="none" stroke-width="1px">0.45</text><text x="0" y="123.89999999999999" dx="0em" dy="0.3em" style="text-anchor: end; visibility: inherit; font-family: Roboto, sans-serif; font-size: 12px; font-weight: 200;" fill="rgb(33, 33, 33)" stroke="none" stroke-width="1px">0.5</text><text x="0" y="106.19999999999997" dx="0em" dy="0.3em" style="text-anchor: end; visibility: hidden; font-family: Roboto, sans-serif; font-size: 12px; font-weight: 200;" fill="rgb(33, 33, 33)" stroke="none" stroke-width="1px">0.55</text><text x="0" y="88.5" dx="0em" dy="0.3em" style="text-anchor: end; visibility: inherit; font-family: Roboto, sans-serif; font-size: 12px; font-weight: 200;" fill="rgb(33, 33, 33)" stroke="none" stroke-width="1px">0.6</text><text x="0" y="70.79999999999998" dx="0em" dy="0.3em" style="text-anchor: end; visibility: hidden; font-family: Roboto, sans-serif; font-size: 12px; font-weight: 200;" fill="rgb(33, 33, 33)" stroke="none" stroke-width="1px">0.65</text><text x="0" y="53.10000000000001" dx="0em" dy="0.3em" style="text-anchor: end; visibility: inherit; font-family: Roboto, sans-serif; font-size: 12px; font-weight: 200;" fill="rgb(33, 33, 33)" stroke="none" stroke-width="1px">0.7</text><text x="0" y="35.39999999999999" dx="0em" dy="0.3em" style="text-anchor: end; visibility: hidden; font-family: Roboto, sans-serif; font-size: 12px; font-weight: 200;" fill="rgb(33, 33, 33)" stroke="none" stroke-width="1px">0.75</text><text x="0" y="17.699999999999978" dx="0em" dy="0.3em" style="text-anchor: end; visibility: inherit; font-family: Roboto, sans-serif; font-size: 12px; font-weight: 200;" fill="rgb(33, 33, 33)" stroke="none" stroke-width="1px">0.8</text><text x="0" y="0" dx="0em" dy="0.3em" style="text-anchor: end; visibility: hidden; font-family: Roboto, sans-serif; font-size: 12px; font-weight: 200;" fill="rgb(33, 33, 33)" stroke="none" stroke-width="1px">0.85</text></g><line x1="51.5625" y1="0" x2="51.5625" y2="177" fill="rgb(0, 0, 0)" stroke="rgb(204, 204, 204)" stroke-width="1px"></line></g></g><g transform="translate(51, 0)" clip-path="url(#clip_0)"><clipPath id="clip_0"><rect width="278" height="177"></rect></clipPath><g><g><g><line x1="0" y1="0" x2="0" y2="177" fill="rgb(0, 0, 0)" stroke="rgb(66, 66, 66)" stroke-width="1px" opacity="0.25"></line><line x1="21.418269230769234" y1="0" x2="21.418269230769234" y2="177" fill="rgb(0, 0, 0)" stroke="rgb(66, 66, 66)" stroke-width="1px" opacity="0.25"></line><line x1="42.83653846153847" y1="0" x2="42.83653846153847" y2="177" fill="rgb(0, 0, 0)" stroke="rgb(66, 66, 66)" stroke-width="1px" opacity="0.25"></line><line x1="64.2548076923077" y1="0" x2="64.2548076923077" y2="177" fill="rgb(0, 0, 0)" stroke="rgb(66, 66, 66)" stroke-width="1px" opacity="0.25"></line><line x1="85.67307692307693" y1="0" x2="85.67307692307693" y2="177" fill="rgb(0, 0, 0)" stroke="rgb(66, 66, 66)" stroke-width="1px" opacity="0.25"></line><line x1="107.09134615384616" y1="0" x2="107.09134615384616" y2="177" fill="rgb(0, 0, 0)" stroke="rgb(66, 66, 66)" stroke-width="1px" opacity="0.25"></line><line x1="128.5096153846154" y1="0" x2="128.5096153846154" y2="177" fill="rgb(0, 0, 0)" stroke="rgb(66, 66, 66)" stroke-width="1px" opacity="0.25"></line><line x1="149.9278846153846" y1="0" x2="149.9278846153846" y2="177" fill="rgb(0, 0, 0)" stroke="rgb(66, 66, 66)" stroke-width="1px" opacity="0.25"></line><line x1="171.34615384615387" y1="0" x2="171.34615384615387" y2="177" fill="rgb(0, 0, 0)" stroke="rgb(66, 66, 66)" stroke-width="1px" opacity="0.25"></line><line x1="192.76442307692307" y1="0" x2="192.76442307692307" y2="177" fill="rgb(0, 0, 0)" stroke="rgb(66, 66, 66)" stroke-width="1px" opacity="0.25"></line><line x1="214.18269230769232" y1="0" x2="214.18269230769232" y2="177" fill="rgb(0, 0, 0)" stroke="rgb(66, 66, 66)" stroke-width="1px" opacity="0.25"></line><line x1="235.60096153846155" y1="0" x2="235.60096153846155" y2="177" fill="rgb(0, 0, 0)" stroke="rgb(66, 66, 66)" stroke-width="1px" opacity="0.25"></line><line x1="257.0192307692308" y1="0" x2="257.0192307692308" y2="177" fill="rgb(0, 0, 0)" stroke="rgb(66, 66, 66)" stroke-width="1px" opacity="0.25"></line><line x1="278.4375" y1="0" x2="278.4375" y2="177" fill="rgb(0, 0, 0)" stroke="rgb(66, 66, 66)" stroke-width="1px" opacity="0.25"></line></g><g><line x1="0" y1="177" x2="278.4375" y2="177" fill="rgb(0, 0, 0)" stroke="rgb(66, 66, 66)" stroke-width="1px" opacity="0.25"></line><line x1="0" y1="159.29999999999998" x2="278.4375" y2="159.29999999999998" fill="rgb(0, 0, 0)" stroke="rgb(66, 66, 66)" stroke-width="1px" opacity="0.25"></line><line x1="0" y1="141.6" x2="278.4375" y2="141.6" fill="rgb(0, 0, 0)" stroke="rgb(66, 66, 66)" stroke-width="1px" opacity="0.25"></line><line x1="0" y1="123.89999999999999" x2="278.4375" y2="123.89999999999999" fill="rgb(0, 0, 0)" stroke="rgb(66, 66, 66)" stroke-width="1px" opacity="0.25"></line><line x1="0" y1="106.19999999999997" x2="278.4375" y2="106.19999999999997" fill="rgb(0, 0, 0)" stroke="rgb(66, 66, 66)" stroke-width="1px" opacity="0.25"></line><line x1="0" y1="88.5" x2="278.4375" y2="88.5" fill="rgb(0, 0, 0)" stroke="rgb(66, 66, 66)" stroke-width="1px" opacity="0.25"></line><line x1="0" y1="70.79999999999998" x2="278.4375" y2="70.79999999999998" fill="rgb(0, 0, 0)" stroke="rgb(66, 66, 66)" stroke-width="1px" opacity="0.25"></line><line x1="0" y1="53.10000000000001" x2="278.4375" y2="53.10000000000001" fill="rgb(0, 0, 0)" stroke="rgb(66, 66, 66)" stroke-width="1px" opacity="0.25"></line><line x1="0" y1="35.39999999999999" x2="278.4375" y2="35.39999999999999" fill="rgb(0, 0, 0)" stroke="rgb(66, 66, 66)" stroke-width="1px" opacity="0.25"></line><line x1="0" y1="17.699999999999978" x2="278.4375" y2="17.699999999999978" fill="rgb(0, 0, 0)" stroke="rgb(66, 66, 66)" stroke-width="1px" opacity="0.25"></line><line x1="0" y1="0" x2="278.4375" y2="0" fill="rgb(0, 0, 0)" stroke="rgb(66, 66, 66)" stroke-width="1px" opacity="0.25"></line></g></g></g><g><g><line x1="0" y1="300.9" x2="278.4375" y2="300.9" fill="rgb(0, 0, 0)" stroke="rgb(153, 153, 153)" stroke-width="1.5px"></line></g></g><g><g><line x1="0" y1="0" x2="0" y2="177" fill="rgb(0, 0, 0)" stroke="rgb(153, 153, 153)" stroke-width="1.5px"></line></g></g><g><g><g><g><g><path stroke="rgb(204, 51, 17)" stroke-width="2px" d="M8.567307692307693,99.20691361427306L21.418269230769234,101.65148491657123L34.269230769230774,115.28310111674828L47.120192307692314,116.58522066332641L59.97115384615385,110.0679439787502L72.82211538461539,102.6324512487337L85.67307692307693,114.84061647108572L98.52403846153847,131.81938055042244L111.375,120.54229400366569L124.22596153846155,123.86424668894645L137.0769230769231,123.32623195566806L149.9278846153846,124.71546569330688L162.77884615384616,125.97633558419213L175.62980769230768,124.3190684952779L188.48076923076925,125.69461352889431L201.33173076923077,116.1428117629486L214.18269230769232,125.57665031758151L227.03365384615384,116.13585113460671L239.8846153846154,120.16859364755278L252.73557692307693,123.57623492692024" style="fill: none;" fill="none"></path></g><g><path stroke="rgb(0, 119, 187)" stroke-width="2px" d="M8.567307692307693,137.5305863857269L21.418269230769234,143.700216943851L34.269230769230774,138.97324905150492L47.120192307692314,128.29436678570863L59.97115384615385,120.46796054285434L72.82211538461539,113.73244234643818L85.67307692307693,106.60695737276858L98.52403846153847,118.49449487028079L111.375,114.28251081745078L124.22596153846155,119.36936710469563L137.0769230769231,104.35774526317907L149.9278846153846,102.89755603912243L162.77884615384616,105.93721067258981L175.62980769230768,118.28236081003553L188.48076923076925,121.01421930960436L201.33173076923077,116.60760309634503L214.18269230769232,112.58346853251058L227.03365384615384,113.67964566676406L239.8846153846154,128.22419687716814L252.73557692307693,104.33074547254697" style="fill: none;" fill="none"></path></g><g><path stroke="rgb(255, 112, 67)" stroke-width="2px" d="M8.567307692307693,120.14663972854613L21.418269230769234,120.03024755752149L34.269230769230774,110.5810491489684L47.120192307692314,115.23660420886486L59.97115384615385,113.43521895754756L72.82211538461539,104.77969777075097L85.67307692307693,111.20646021183873L98.52403846153847,112.61723083848224L111.375,118.32244008509204L124.22596153846155,118.95207098212796L137.0769230769231,113.22032078102345L149.9278846153846,104.06543165474643L162.77884615384616,102.0360049593772L175.62980769230768,108.82385727079713L188.48076923076925,115.2761878383575L201.33173076923077,125.22249843265753L214.18269230769232,136.33817718056412L227.03365384615384,130.7053816279294L239.8846153846154,134.33348418227405L252.73557692307693,138.41771110497763" style="fill: none;" fill="none"></path></g><g><path stroke="rgb(187, 187, 187)" stroke-width="2px" d="M8.567307692307693,135.16003861427308L21.418269230769234,135.27644943589664L34.269230769230774,119.83809085749161L47.120192307692314,132.49592837761986L59.97115384615385,136.61428885877987L72.82211538461539,136.38701965433214L85.67307692307693,137.86955050755165L98.52403846153847,129.7740588177608L111.375,124.8709163943383L124.22596153846155,115.70955535988897L137.0769230769231,118.6050086959899L149.9278846153846,120.89794942100708L162.77884615384616,115.5333879671402L175.62980769230768,109.04865209994216L188.48076923076925,113.32823724804737L201.33173076923077,119.96386389043559L214.18269230769232,119.59947117393027L227.03365384615384,101.30202787526326L239.8846153846154,111.69163487660268L252.73557692307693,102.93429978199862" style="fill: none;" fill="none"></path></g><g><path stroke="rgb(0, 153, 136)" stroke-width="2px" d="M8.567307692307693,92.29285111427306L21.418269230769234,100.79064836993805L34.269230769230774,104.04711220755529L47.120192307692314,118.81531614087498L59.97115384615385,117.79367838669528L72.82211538461539,121.91173742839757L85.67307692307693,121.85089714926545L98.52403846153847,120.73357045902922L111.375,114.07209254493904L124.22596153846155,107.16640612143186L137.0769230769231,97.8755721491129L149.9278846153846,103.56118689819363L162.77884615384616,93.47025379947794L175.62980769230768,100.15937927723405L188.48076923076925,91.93316707534963L201.33173076923077,85.55791975157463L214.18269230769232,73.38640280683843L227.03365384615384,78.88392607536538L239.8846153846154,68.63046986838495L252.73557692307693,71.07333769738008" style="fill: none;" fill="none"></path></g><g><path stroke="rgb(238, 51, 119)" stroke-width="2px" d="M8.567307692307693,131.40669944286347L21.418269230769234,157.36572206262005L34.269230769230774,141.40072715806357L47.120192307692314,123.33467992551516L59.97115384615385,140.59023134209187L72.82211538461539,127.17089436964854L85.67307692307693,122.45065712342134L98.52403846153847,116.76719778064731L111.375,104.256861273517L124.22596153846155,96.71665266833482L137.0769230769231,97.24168100585332L149.9278846153846,92.56823415130026L162.77884615384616,95.62532516923758L175.62980769230768,85.03081882366071L188.48076923076925,76.83965659651302L201.33173076923077,77.39362559945L214.18269230769232,73.75981223273622L227.03365384615384,63.07838214123779L239.8846153846154,58.09839225122519L252.73557692307693,62.17741731407004" style="fill: none;" fill="none"></path></g><g><path stroke="rgb(51, 187, 238)" stroke-width="2px" d="M8.567307692307693,64.63660111427306L21.418269230769234,125.05243739258492L34.269230769230774,118.37045781304371L47.120192307692314,105.8343141467175L59.97115384615385,89.81907366787367L72.82211538461539,93.09957931888528L85.67307692307693,90.62204093448332L98.52403846153847,99.4618234363612L111.375,86.24171466683592L124.22596153846155,79.08264875434979L137.0769230769231,64.43324464602769L149.9278846153846,57.035318198628936L162.77884615384616,47.3383117691568L175.62980769230768,47.67363712653287L188.48076923076925,37.32449081261336L201.33173076923077,27.79325423518274L214.18269230769232,26.80387536476391L227.03365384615384,28.932863694100412L239.8846153846154,24.543050806604427L252.73557692307693,26.39752517624701" style="fill: none;" fill="none"></path></g><g><path stroke="rgb(204, 51, 17)" stroke-width="2px" d="M8.567307692307693,159.65558638572693L21.418269230769234,124.3839218432719L34.269230769230774,126.69623050460149L47.120192307692314,125.35219805216515L59.97115384615385,108.70634823108256L72.82211538461539,97.81560118808433L85.67307692307693,77.84654314253314L98.52403846153847,66.762063385753L111.375,61.60833200562597L124.22596153846155,59.967544717687765L137.0769230769231,45.547734225159545L149.9278846153846,41.279593654307256L162.77884615384616,49.26794661764631L175.62980769230768,40.46065166194541L188.48076923076925,30.503105944573726L201.33173076923077,25.146662593199324L214.18269230769232,21.361795036733337L227.03365384615384,17.888714307488215L239.8846153846154,12.654476079035266L252.73557692307693,15.17872732512361" style="fill: none;" fill="none"></path></g><g><path stroke="rgb(51, 187, 238)" stroke-width="2px" d="M8.567307692307693,114.81294944286346L21.418269230769234,138.09457911707474L34.269230769230774,127.97167977568283L47.120192307692314,113.5863432978887L59.97115384615385,114.3177428172197L72.82211538461539,110.02511651602299L85.67307692307693,115.57017967532515L98.52403846153847,123.37731708236763L111.375,125.34802270213862L124.22596153846155,110.99337671275877L137.0769230769231,113.27107405730695L149.9278846153846,119.9917839072596L162.77884615384616,130.18794586050743L175.62980769230768,145.017384698325L188.48076923076925,142.07737924050733L201.33173076923077,126.8856793954704L214.18269230769232,122.13997203257988L227.03365384615384,111.76382401287577L239.8846153846154,113.58746984444737L252.73557692307693,114.07886477710615" style="fill: none;" fill="none"></path></g><g><path stroke="rgb(0, 119, 187)" stroke-width="2px" d="M8.567307692307693,160.84084972143174L21.418269230769234,118.35186965997313L34.269230769230774,110.03358767824858L47.120192307692314,82.54910086049306L59.97115384615385,90.73939191196634L72.82211538461539,67.94641343128107L85.67307692307693,63.798856930257685L98.52403846153847,65.27201797884813L111.375,63.88850567750384L124.22596153846155,47.51087356251317L137.0769230769231,47.37013084374322L149.9278846153846,32.65595185561782L162.77884615384616,25.581433193751458L175.62980769230768,28.937027226185023L188.48076923076925,26.154292195054747L201.33173076923077,28.964460461142284L214.18269230769232,21.38091757570333L227.03365384615384,21.85848969114822L239.8846153846154,19.85414780518343L252.73557692307693,14.085512286493021" style="fill: none;" fill="none"></path></g><g><path stroke="rgb(255, 112, 67)" stroke-width="2px" d="M8.567307692307693,135.55513694286347L21.418269230769234,126.70811343919408L34.269230769230774,98.5430859988374L47.120192307692314,86.50594469338922L59.97115384615385,64.17506171086073L72.82211538461539,56.76096241160836L85.67307692307693,47.05917119021929L98.52403846153847,64.99632070686185L111.375,44.70624428686173L124.22596153846155,37.44005306341912L137.0769230769231,37.542117988075915L149.9278846153846,31.425604366073266L162.77884615384616,37.41333279972825L175.62980769230768,32.52228046994532L188.48076923076925,35.38221258150285L201.33173076923077,29.32335077723938L214.18269230769232,24.630120348646066L227.03365384615384,20.285131251991743L239.8846153846154,14.204167963059968L252.73557692307693,19.493116099538103" style="fill: none;" fill="none"></path></g></g></g></g><g opacity="0.2"><g><g><g><path stroke="rgb(204, 51, 17)" stroke-width="2px" d="M8.567307692307693,99.20691361427306L21.418269230769234,103.35535111427306L34.269230769230774,131.40669944286347L47.120192307692314,118.56628861427306L59.97115384615385,98.61429777145385L72.82211538461539,88.34197332859038L85.67307692307693,139.70356389284134L98.52403846153847,167.75491222143174L111.375,96.04621138572692L124.22596153846155,131.2091608285904L137.0769230769231,122.12211027145385L149.9278846153846,127.8508883357048L162.77884615384616,128.83862360715867L175.62980769230768,120.54173805713653L188.48076923076925,128.83861305713654L201.33173076923077,94.26832165718078L214.18269230769232,147.2102633357048L227.03365384615384,94.46586027145385L239.8846153846154,129.43125L252.73557692307693,131.40669944286347" style="fill: none;" fill="none"></path></g><g><path stroke="rgb(0, 119, 187)" stroke-width="2px" d="M8.567307692307693,137.53058638572693L21.418269230769234,148.00044944286347L34.269230769230774,133.38214888572693L47.120192307692314,112.04732444286346L59.97115384615385,106.71361305713653L72.82211538461539,100.78726472854613L85.67307692307693,92.09531249999999L98.52403846153847,143.65445222854615L111.375,105.1332408428192L124.22596153846155,130.61652388572693L137.0769230769231,70.76048805713653L149.9278846153846,99.6019908428192L162.77884615384616,112.83749999999999L175.62980769230768,146.42007722854615L188.48076923076925,127.25826194286346L201.33173076923077,106.5160533428192L214.18269230769232,103.35535111427306L227.03365384615384,116.19576194286346L239.8846153846154,161.6310358285904L252.73557692307693,49.42566361427306" style="fill: none;" fill="none"></path></g><g><path stroke="rgb(255, 112, 67)" stroke-width="2px" d="M8.567307692307693,120.14663972854613L21.418269230769234,119.94912221431731L34.269230769230774,99.40445222854613L47.120192307692314,122.31964888572692L59.97115384615385,110.26941361427306L72.82211538461539,88.14441361427306L85.67307692307693,124.29509832859038L98.52403846153847,115.60312499999999L111.375,130.71529319286347L124.22596153846155,120.34419944286346L137.0769230769231,100.39218749999999L149.9278846153846,83.40336027145385L162.77884615384616,97.42902388572692L175.62980769230768,124.29508777856826L188.48076923076925,130.02388694286347L201.33173076923077,148.00044944286347L214.18269230769232,161.82857444286347L227.03365384615384,117.77611305713653L239.8846153846154,142.66673805713654L252.73557692307693,147.8029108285904" style="fill: none;" fill="none"></path></g><g><path stroke="rgb(187, 187, 187)" stroke-width="2px" d="M8.567307692307693,135.16003861427308L21.418269230769234,135.35758777856827L34.269230769230774,101.57746138572692L47.120192307692314,151.75378861427308L59.97115384615385,143.85201194286347L72.82211538461539,135.95022472143174L85.67307692307693,140.8888483285904L98.52403846153847,112.63996138572692L111.375,114.22031249999999L124.22596153846155,95.45357444286346L137.0769230769231,125.08527388572692L149.9278846153846,126.07298805713653L162.77884615384616,103.35535111427306L175.62980769230768,94.26830055713653L188.48076923076925,123.10982444286346L201.33173076923077,135.1600491642952L214.18269230769232,118.76384832859038L227.03365384615384,59.302889728546134L239.8846153846154,135.55513694286347L252.73557692307693,82.81070222854613" style="fill: none;" fill="none"></path></g><g><path stroke="rgb(0, 153, 136)" stroke-width="2px" d="M8.567307692307693,92.29285111427306L21.418269230769234,106.71361305713653L34.269230769230774,107.89888694286346L47.120192307692314,141.28392555713654L59.97115384615385,115.99822332859038L72.82211538461539,129.8263483285904L85.67307692307693,121.7269908428192L98.52403846153847,118.36874999999999L111.375,99.6020330429077L124.22596153846155,91.89777388572692L137.0769230769231,77.08191361427306L149.9278846153846,116.39330055713653L162.77884615384616,70.5629283428192L175.62980769230768,115.40558638572692L188.48076923076925,73.13101472854613L201.33173076923077,70.9580266714096L214.18269230769232,45.474764728546134L227.03365384615384,91.50269665718078L239.8846153846154,45.07968749999999L252.73557692307693,76.68683638572692" style="fill: none;" fill="none"></path></g><g><path stroke="rgb(238, 51, 119)" stroke-width="2px" d="M8.567307692307693,131.40669944286347L21.418269230769234,175.4591608285904L34.269230769230774,122.51718749999999L47.120192307692314,95.84867277145385L59.97115384615385,170.915625L72.82211538461539,101.3799016714096L85.67307692307693,112.83749999999999L98.52403846153847,104.73816361427306L111.375,77.08191361427306L124.22596153846155,80.04507722854613L137.0769230769231,98.41673805713653L149.9278846153846,82.0205266714096L162.77884615384616,102.56519665718078L175.62980769230768,60.883261942863456L188.48076923076925,58.117615842819205L201.33173076923077,78.66226472854613L214.18269230769232,65.4267766714096L227.03365384615384,38.560702228546134L239.8846153846154,46.66003861427306L252.73557692307693,71.55066361427306" style="fill: none;" fill="none"></path></g><g><path stroke="rgb(51, 187, 238)" stroke-width="2px" d="M8.567307692307693,64.63660111427306L21.418269230769234,167.16227527856827L34.269230769230774,110.46695222854613L47.120192307692314,86.76160111427306L59.97115384615385,61.67343749999999L72.82211538461539,99.40447332859038L85.67307692307693,85.57632722854613L98.52403846153847,118.17121138572692L111.375,57.52499999999999L124.22596153846155,63.25378861427306L137.0769230769231,31.646660828590385L149.9278846153846,40.33861305713653L162.77884615384616,25.32523527145385L175.62980769230768,48.437928342819205L188.48076923076925,13.670077228546134L201.33173076923077,5.96586027145385L214.18269230769232,24.535038614273063L227.03365384615384,33.81964888572692L239.8846153846154,14.46025278568267L252.73557692307693,30.658946657180778" style="fill: none;" fill="none"></path></g><g><path stroke="rgb(204, 51, 17)" stroke-width="2px" d="M8.567307692307693,159.65558638572693L21.418269230769234,99.79957165718078L34.269230769230774,129.43125L47.120192307692314,123.30736305713653L59.97115384615385,79.45246138572692L72.82211538461539,76.88437499999999L85.67307692307693,37.177889728546134L98.52403846153847,43.3017766714096L111.375,50.41339888572692L124.22596153846155,56.33972611427306L137.0769230769231,13.274999999999991L149.9278846153846,31.646639728546134L162.77884615384616,67.40222611427306L175.62980769230768,20.386601114273063L188.48076923076925,7.743749999999992L201.33173076923077,12.879922771453849L214.18269230769232,12.682363057136527L227.03365384615384,9.916759157180778L239.8846153846154,0.6321488857269209L252.73557692307693,20.979238057136527" style="fill: none;" fill="none"></path></g><g><path stroke="rgb(51, 187, 238)" stroke-width="2px" d="M8.567307692307693,114.81294944286346L21.418269230769234,154.321875L34.269230769230774,115.99822332859038L47.120192307692314,91.70023527145385L59.97115384615385,115.60312499999999L72.82211538461539,101.77499999999999L85.67307692307693,126.86316361427306L98.52403846153847,139.90111305713654L111.375,129.62878861427308L124.22596153846155,79.25492277145385L137.0769230769231,118.36874999999999L149.9278846153846,135.1600491642952L162.77884615384616,153.33415027856827L175.62980769230768,178.81742277145386L188.48076923076925,135.35758777856827L201.33173076923077,92.09531249999999L214.18269230769232,111.25714888572692L227.03365384615384,87.94687499999999L239.8846153846154,117.77613415718078L252.73557692307693,115.20804777145385" style="fill: none;" fill="none"></path></g><g><path stroke="rgb(0, 119, 187)" stroke-width="2px" d="M8.567307692307693,160.84084972143174L21.418269230769234,88.73705055713653L34.269230769230774,100.19464888572692L47.120192307692314,40.73371138572692L59.97115384615385,105.1332408428192L72.82211538461539,24.13996138572692L85.67307692307693,55.352011942863456L98.52403846153847,68.38996138572692L111.375,60.883240842819205L124.22596153846155,11.299550557136527L137.0769230769231,47.055136942863456L149.9278846153846,-0.5531250000000079L162.77884615384616,9.521639728546134L175.62980769230768,36.58527388572692L188.48076923076925,19.7939641714096L201.33173076923077,35.39999999999999L214.18269230769232,3.990389728546135L227.03365384615384,22.95468749999999L239.8846153846154,15.250449442863456L252.73557692307693,0.8296874999999921" style="fill: none;" fill="none"></path></g><g><path stroke="rgb(255, 112, 67)" stroke-width="2px" d="M8.567307692307693,135.55513694286347L21.418269230769234,120.54173805713653L34.269230769230774,65.22923805713653L47.120192307692314,68.19242277145385L59.97115384615385,24.930136942863456L72.82211538461539,42.51160111427306L85.67307692307693,27.300663614273063L98.52403846153847,102.96027388572692L111.375,0.6321488857269209L124.22596153846155,21.37433638572692L137.0769230769231,37.77054777145385L149.9278846153846,17.620976114273063L162.77884615384616,51.006014728546134L175.62980769230768,21.37433638572692L188.48076923076925,41.91898527145385L201.33173076923077,15.448009157180778L214.18269230769232,13.867636942863456L227.03365384615384,10.31183638572692L239.8846153846154,0.2370294570922773L252.73557692307693,31.646660828590385" style="fill: none;" fill="none"></path></g></g></g></g></g></g><g transform="translate(51, 177)" clip-path="url(#clip_1)"><clipPath id="clip_1"><rect width="278" height="23"></rect></clipPath><g><g><line x1="0" y1="0" x2="0" y2="5" style="visibility: inherit;" fill="rgb(0, 0, 0)" stroke="rgb(204, 204, 204)" stroke-width="1px"></line><line x1="21.418269230769234" y1="0" x2="21.418269230769234" y2="5" style="visibility: inherit;" fill="rgb(0, 0, 0)" stroke="rgb(204, 204, 204)" stroke-width="1px"></line><line x1="42.83653846153847" y1="0" x2="42.83653846153847" y2="5" style="visibility: inherit;" fill="rgb(0, 0, 0)" stroke="rgb(204, 204, 204)" stroke-width="1px"></line><line x1="64.2548076923077" y1="0" x2="64.2548076923077" y2="5" style="visibility: inherit;" fill="rgb(0, 0, 0)" stroke="rgb(204, 204, 204)" stroke-width="1px"></line><line x1="85.67307692307693" y1="0" x2="85.67307692307693" y2="5" style="visibility: inherit;" fill="rgb(0, 0, 0)" stroke="rgb(204, 204, 204)" stroke-width="1px"></line><line x1="107.09134615384616" y1="0" x2="107.09134615384616" y2="5" style="visibility: inherit;" fill="rgb(0, 0, 0)" stroke="rgb(204, 204, 204)" stroke-width="1px"></line><line x1="128.5096153846154" y1="0" x2="128.5096153846154" y2="5" style="visibility: inherit;" fill="rgb(0, 0, 0)" stroke="rgb(204, 204, 204)" stroke-width="1px"></line><line x1="149.9278846153846" y1="0" x2="149.9278846153846" y2="5" style="visibility: inherit;" fill="rgb(0, 0, 0)" stroke="rgb(204, 204, 204)" stroke-width="1px"></line><line x1="171.34615384615387" y1="0" x2="171.34615384615387" y2="5" style="visibility: inherit;" fill="rgb(0, 0, 0)" stroke="rgb(204, 204, 204)" stroke-width="1px"></line><line x1="192.76442307692307" y1="0" x2="192.76442307692307" y2="5" style="visibility: inherit;" fill="rgb(0, 0, 0)" stroke="rgb(204, 204, 204)" stroke-width="1px"></line><line x1="214.18269230769232" y1="0" x2="214.18269230769232" y2="5" style="visibility: inherit;" fill="rgb(0, 0, 0)" stroke="rgb(204, 204, 204)" stroke-width="1px"></line><line x1="235.60096153846155" y1="0" x2="235.60096153846155" y2="5" style="visibility: inherit;" fill="rgb(0, 0, 0)" stroke="rgb(204, 204, 204)" stroke-width="1px"></line><line x1="257.0192307692308" y1="0" x2="257.0192307692308" y2="5" style="visibility: inherit;" fill="rgb(0, 0, 0)" stroke="rgb(204, 204, 204)" stroke-width="1px"></line><line x1="278.4375" y1="0" x2="278.4375" y2="5" style="visibility: inherit;" fill="rgb(0, 0, 0)" stroke="rgb(204, 204, 204)" stroke-width="1px"></line></g><g transform="translate(0, 8)"><text x="0" y="0" dx="0em" dy="0.95em" style="text-anchor: middle; visibility: hidden; font-family: Roboto, sans-serif; font-size: 12px; font-weight: 200;" fill="rgb(33, 33, 33)" stroke="none" stroke-width="1px">0</text><text x="21.418269230769234" y="0" dx="0em" dy="0.95em" style="text-anchor: middle; visibility: inherit; font-family: Roboto, sans-serif; font-size: 12px; font-weight: 200;" fill="rgb(33, 33, 33)" stroke="none" stroke-width="1px">5</text><text x="42.83653846153847" y="0" dx="0em" dy="0.95em" style="text-anchor: middle; visibility: inherit; font-family: Roboto, sans-serif; font-size: 12px; font-weight: 200;" fill="rgb(33, 33, 33)" stroke="none" stroke-width="1px">10</text><text x="64.2548076923077" y="0" dx="0em" dy="0.95em" style="text-anchor: middle; visibility: inherit; font-family: Roboto, sans-serif; font-size: 12px; font-weight: 200;" fill="rgb(33, 33, 33)" stroke="none" stroke-width="1px">15</text><text x="85.67307692307693" y="0" dx="0em" dy="0.95em" style="text-anchor: middle; visibility: inherit; font-family: Roboto, sans-serif; font-size: 12px; font-weight: 200;" fill="rgb(33, 33, 33)" stroke="none" stroke-width="1px">20</text><text x="107.09134615384616" y="0" dx="0em" dy="0.95em" style="text-anchor: middle; visibility: inherit; font-family: Roboto, sans-serif; font-size: 12px; font-weight: 200;" fill="rgb(33, 33, 33)" stroke="none" stroke-width="1px">25</text><text x="128.5096153846154" y="0" dx="0em" dy="0.95em" style="text-anchor: middle; visibility: inherit; font-family: Roboto, sans-serif; font-size: 12px; font-weight: 200;" fill="rgb(33, 33, 33)" stroke="none" stroke-width="1px">30</text><text x="149.9278846153846" y="0" dx="0em" dy="0.95em" style="text-anchor: middle; visibility: inherit; font-family: Roboto, sans-serif; font-size: 12px; font-weight: 200;" fill="rgb(33, 33, 33)" stroke="none" stroke-width="1px">35</text><text x="171.34615384615387" y="0" dx="0em" dy="0.95em" style="text-anchor: middle; visibility: inherit; font-family: Roboto, sans-serif; font-size: 12px; font-weight: 200;" fill="rgb(33, 33, 33)" stroke="none" stroke-width="1px">40</text><text x="192.76442307692307" y="0" dx="0em" dy="0.95em" style="text-anchor: middle; visibility: inherit; font-family: Roboto, sans-serif; font-size: 12px; font-weight: 200;" fill="rgb(33, 33, 33)" stroke="none" stroke-width="1px">45</text><text x="214.18269230769232" y="0" dx="0em" dy="0.95em" style="text-anchor: middle; visibility: inherit; font-family: Roboto, sans-serif; font-size: 12px; font-weight: 200;" fill="rgb(33, 33, 33)" stroke="none" stroke-width="1px">50</text><text x="235.60096153846155" y="0" dx="0em" dy="0.95em" style="text-anchor: middle; visibility: inherit; font-family: Roboto, sans-serif; font-size: 12px; font-weight: 200;" fill="rgb(33, 33, 33)" stroke="none" stroke-width="1px">55</text><text x="257.0192307692308" y="0" dx="0em" dy="0.95em" style="text-anchor: middle; visibility: inherit; font-family: Roboto, sans-serif; font-size: 12px; font-weight: 200;" fill="rgb(33, 33, 33)" stroke="none" stroke-width="1px">60</text><text x="278.4375" y="0" dx="0em" dy="0.95em" style="text-anchor: middle; visibility: hidden; font-family: Roboto, sans-serif; font-size: 12px; font-weight: 200;" fill="rgb(33, 33, 33)" stroke="none" stroke-width="1px">65</text></g><line x1="0" y1="0" x2="278.4375" y2="0" fill="rgb(0, 0, 0)" stroke="rgb(204, 204, 204)" stroke-width="1px"></line></g></g></g></g></svg>